<?xml version="1.0" encoding="UTF-8" standalone="no"?>
<svg
   xmlns:svg="http://www.w3.org/2000/svg"
   xmlns="http://www.w3.org/2000/svg"
   id="svg8"
   version="1.1"
   viewBox="0 0 169.20311 169.21768"
   height="169.21768mm"
   width="169.20311mm">
  <g
     transform="translate(37.540643,66.507444)"
     id="layer1">
    <path
       id="path4536"
       d="m 40.931359,102.49682 c -7.802544,-0.56793 -16.1163,-2.38391 -23.594492,-5.153771 -3.640015,-1.34822 -11.6149292,-5.2663 -14.7447812,-7.2441 -6.0046652,-3.79445 -10.4624877,-7.3458 -15.3270908,-12.21041 -4.864605,-4.8646 -8.415951,-9.32242 -12.210401,-15.32709 -1.977807,-3.12985 -5.89588,-11.10476 -7.244108,-14.74478 -7.134839,-19.26302 -7.134839,-40.1850724 0,-59.448088 1.348228,-3.640016 5.266301,-11.61493 7.244108,-14.744782 3.79445,-6.004666 7.345796,-10.462489 12.210401,-15.327092 4.8646031,-4.864606 9.3224256,-8.415952 15.3270908,-12.210401 3.129852,-1.977808 11.1047662,-5.895881 14.7447812,-7.244109 19.25766,-7.132855 40.190426,-7.132855 59.448086,0 3.603795,1.334812 11.602623,5.259203 14.675676,7.200191 5.986935,3.78144 10.738851,7.567419 15.501651,12.350587 4.79057,4.811062 8.35299,9.2934 12.10495,15.230824 1.9778,3.129852 5.89588,11.104766 7.2441,14.744782 7.13484,19.2630156 7.13484,40.185068 0,59.448088 -1.34822,3.64002 -5.2663,11.61493 -7.2441,14.74478 -3.79445,6.00467 -7.3458,10.46249 -12.21041,15.32709 -4.8646,4.86461 -9.322421,8.41596 -15.327086,12.21041 -3.129852,1.9778 -11.104766,5.89588 -14.744781,7.2441 -11.406316,4.224801 -23.914569,6.022791 -35.853594,5.153771 z M 56.177458,86.923579 c 10.570647,-1.48556 20.533136,-5.22246 29.058726,-10.89985 4.250721,-2.83065 7.292381,-5.32012 10.864042,-8.89179 11.122204,-11.1222 17.933884,-25.12671 19.929484,-40.97411 0.37771,-2.99948 0.37771,-13.130923 0,-16.130403 -1.38556,-11.00294338 -5.14721,-21.264468 -11.03769,-30.110077 -2.83065,-4.250721 -5.320132,-7.292381 -8.891794,-10.864043 C 84.97802,-42.0689 70.973515,-48.88058 55.126109,-50.876179 c -2.99948,-0.377712 -13.130918,-0.377712 -16.130398,0 -11.002942,1.385555 -21.264466,5.147207 -30.1100753,11.037696 -4.2507211,2.83065 -7.2923807,5.320128 -10.8640421,8.891789 -11.1263076,11.12631 -17.9422486,25.1389766 -19.9303356,40.97412 -0.376214,2.996557 -0.376214,13.133843 0,16.130403 1.661035,13.23017 6.760647,25.31858 15.0158379,35.59441 2.4349803,3.03099 7.2632126,7.85922 10.2942046,10.2942 4.8936443,3.93136 11.4868025,7.86962 16.9906855,10.14895 5.722736,2.36997 12.744838,4.19671 18.496189,4.81161 1.182896,0.12647 2.489458,0.26941 2.903472,0.31765 1.817397,0.21174 12.056547,-0.0737 14.385811,-0.40107 z M 26.736609,21.848949 C 18.633773,11.551647 11.826738,2.8887996 11.609864,2.5981746 l -0.394313,-0.528412 6.954008,0.0065 6.95401,0.0065 10.861135,14.6177264 c 8.406247,11.31375 10.954641,14.60573 11.274836,14.56468 0.26228,-0.0336 4.590668,-5.38631 11.825674,-14.62417 L 70.497186,2.0697706 h 6.935013 6.935015 l -15.975871,19.1951784 -15.975872,19.19517 -5.473216,0.0556 -5.473216,0.0556 z"
       style="fill:#777D97;stroke-width:0.21507198" />
  </g>
</svg>
