<svg xmlns="http://www.w3.org/2000/svg" viewBox="0 0 1276 30">
  <title>bar</title>
    <path d="M0,0V30H1276V0ZM1275.3,20.6a2.9,2.9,0,0,1-1.5,2.5l-9.3,5.4a3,3,0,0,1-2.9,0l-10.9-6.2V22H1150.3v.3l-10.8,6.2a3,3,0,0,1-2.9,0l-10.9-6.2V22H1025.3v.3l-10.8,6.2a3,3,0,0,1-2.9,0l-10.9-6.2V22H900.3v.3l-10.8,6.2a3,3,0,0,1-2.9,0l-10.9-6.2V22H775.3v.3l-10.8,6.2a3,3,0,0,1-2.9,0l-10.9-6.2V22H650.3v.3l-10.8,6.2a3,3,0,0,1-2.9,0l-10.9-6.2V22H525.3v.3l-10.8,6.2a3,3,0,0,1-2.9,0l-10.9-6.2V22H400.3v.3l-10.8,6.2a3,3,0,0,1-2.9,0l-10.9-6.2V22H275.3v.3l-10.8,6.2a3,3,0,0,1-2.9,0l-10.9-6.2V22H150.3v.3l-10.8,6.2a3,3,0,0,1-2.9,0l-10.9-6.2V22H25.3v.3L14.5,28.5a3,3,0,0,1-2.9,0L2.2,23.1A2.9,2.9,0,0,1,.7,20.6V9.8A3.1,3.1,0,0,1,2.2,7.2l9.4-5.4a3,3,0,0,1,2.9,0l10,5.8a2.3,2.3,0,0,0,1.4.4h99.2a2.8,2.8,0,0,0,1.5-.4l10-5.8a3,3,0,0,1,2.9,0l10,5.8a2.3,2.3,0,0,0,1.4.4h99.2a2.8,2.8,0,0,0,1.5-.4l10-5.8a3,3,0,0,1,2.9,0l10,5.8a2.3,2.3,0,0,0,1.4.4h99.2a2.8,2.8,0,0,0,1.5-.4l10-5.8a3,3,0,0,1,2.9,0l10,5.8a2.3,2.3,0,0,0,1.4.4h99.2a2.8,2.8,0,0,0,1.5-.4l10-5.8a3,3,0,0,1,2.9,0l10,5.8a2.3,2.3,0,0,0,1.4.4h99.2a2.8,2.8,0,0,0,1.5-.4l10-5.8a3,3,0,0,1,2.9,0l10,5.8a2.3,2.3,0,0,0,1.4.4h99.2a2.8,2.8,0,0,0,1.5-.4l10-5.8a3,3,0,0,1,2.9,0l10,5.8a2.3,2.3,0,0,0,1.4.4h99.2a2.8,2.8,0,0,0,1.5-.4l10-5.8a3,3,0,0,1,2.9,0l10,5.8a2.3,2.3,0,0,0,1.4.4h99.2a2.8,2.8,0,0,0,1.5-.4l10-5.8a3,3,0,0,1,2.9,0l10,5.8a2.3,2.3,0,0,0,1.4.4h99.2a2.8,2.8,0,0,0,1.5-.4l10-5.8a3,3,0,0,1,2.9,0l10,5.8a2.3,2.3,0,0,0,1.4.4h99.2a2.8,2.8,0,0,0,1.5-.4l10-5.8a3,3,0,0,1,2.9,0l9.3,5.4a3.1,3.1,0,0,1,1.5,2.6Z"/>
</svg>
