<svg xmlns="http://www.w3.org/2000/svg" viewBox="0 0 507.88 406.3">
    <title>camera</title>
    <path d="M40.93,405.51c-13.71-2.59-28.82-14-35.1-26.41C-.54,366.46-.3,372.38,0,238.21l.27-121.8,2.21-5.81A53.54,53.54,0,0,1,34.07,79c5.56-2.06,7.9-2.2,44.54-2.73,41.84-.6,41-.49,47.27-6.28,4-3.7,5.77-7.94,14.68-34.79,7.05-21.25,8.64-25.1,11.55-28C159.56-.26,151.34.3,253.64.3h91.72l4.73,2.78a24.75,24.75,0,0,1,7.08,6.45c1.29,2,6.23,15.37,11,29.67,7.46,22.42,9.12,26.49,12.07,29.52,6.94,7.16,5.54,6.94,48.44,7.55,36.51.52,39,.67,44.48,2.71a53.5,53.5,0,0,1,31.62,31.55l2.24,5.88.27,121.8c.3,134.17.54,128.25-5.83,140.89-4.05,8-13.53,17.49-21.62,21.58-12.5,6.31.6,6-226.68,5.87-125.8-.06-209.2-.47-212.21-1Zm236.26-52.36c53.45-10.09,94.11-52.42,102.33-106.54C389.73,179.41,343,114.8,275.85,103.33c-11.79-2-31.83-2.06-43.36-.1a125.79,125.79,0,0,0-67.92,35.22c-34.7,34.43-46.38,84.35-30.71,131.13,17.54,52.34,69.91,88.17,125,85.55a163.47,163.47,0,0,0,18.29-2Zm-39.62-50.38a76.19,76.19,0,0,1-51.15-39.5c-5.92-11.35-8.16-20.8-8.19-34.52,0-14.22,1.79-22.19,8-34.73,4-8.05,6-10.81,14.12-18.9,10.45-10.43,19-15.66,32.8-20,6.26-2,9.57-2.32,20.84-2.32s14.58.36,20.84,2.32c13.77,4.3,22.36,9.53,32.81,20,8.09,8.09,10.16,10.85,14.11,18.9,6.06,12.33,8,20.54,8,34.24,0,13.52-1.9,21.84-7.72,33.74-9.17,18.75-24.28,31.86-44.69,38.78-6.68,2.26-10,2.74-20.84,3-8.57.23-14.89-.12-18.85-1ZM447.14,160.33c13-5.92,13.08-25.39.07-31.69-5.15-2.49-9.4-2.66-14.39-.58s-7.13,4.18-9.3,8.9c-7,15.26,8.25,30.35,23.62,23.37Z"/>
</svg>