<svg xmlns="http://www.w3.org/2000/svg" viewBox="0 0 160 200">
  <title>cards</title>
  <path d="M40.1,178.6C15.8,164.8,2.2,156.4,1.3,154.9A10.1,10.1,0,0,1,10.2,140c1.2,0,17.2,8.5,35.5,19S79.4,178,80,178s15.9-8.6,34.2-19,34.3-19,35.5-19c5.3,0,10.3,4.8,10.3,9.9s-1.7,6.8-40,28.6C98.8,190.6,81.3,200,79.9,200s-18.8-9.4-39.8-21.4Zm0-50C15.8,114.8,2.2,106.4,1.3,104.9A10.1,10.1,0,0,1,10.2,90c1.2,0,17.2,8.5,35.5,19S79.4,128,80,128s15.9-8.6,34.2-19,34.3-19,35.5-19c5.3,0,10.3,4.8,10.3,9.9s-1.7,6.8-40,28.6C98.8,140.6,81.3,150,79.9,150s-18.8-9.4-39.8-21.4Zm1.4-49.1C21.7,68.2,4.2,57.6,2.7,56q-5.4-6,0-12c4-4.3,42.5-26,46.2-26s9.2,4.6,9.3,9.2a11.6,11.6,0,0,1-1.5,6c-.9,1.4-7,5.6-13.7,9.3S31,49.6,31,50,78.6,78,80,78s49-27.2,49-28-12.8-7.9-28.4-16.8C72,16.9,70,15.3,70,10S74.9,0,80.2,0c3.1,0,73.6,40.3,77,44a10,10,0,0,1,2.8,6,10,10,0,0,1-2.8,6c-3.6,3.9-74,44-77.2,44-1.5,0-18.2-8.9-38.5-20.5Z"/>
</svg>
