<svg xmlns="http://www.w3.org/2000/svg" viewBox="0 0 199.5 199.8">
  <title>cart</title>
  <path d="M20.5,198.3C-.6,190.7-6.7,164.7,9,149c5.8-5.8,11.9-8.4,20-8.4a47.8,47.8,0,0,1,10.2.8l3.7.8,3.3-6.6,3.3-6.7L35.9,74.7,22.4,20.5,14.1,20c-7.8-.5-8.4-.7-11.2-3.8S-1,7.8,3.4,3.4L6.8,0H33.2l3.2,3.2c2.8,3,3.7,5.5,8.5,25L50.2,50h71c64.9,0,71.2.1,73.9,1.7,5.7,3.4,5.7,4.6-.2,34.6-5.1,25.7-5.5,27.4-8.4,30.2s-6.3,3.8-45.1,13.4-42.4,10.4-45,9.2c-7.5-3-8.4-13.4-1.6-17.3,1.5-.8,19.4-5.7,39.8-10.7l37-9.2,2.9-14.7c1.5-8.1,3-15.3,3.3-16S165.5,70,116.7,70H55.3l7.6,30.5,7.6,30.6-6.6,13-6.6,13.1,1.4,4.7c3,9.7-.1,21.5-7.7,29.1s-20.3,10.9-30.5,7.3Zm14.4-19.7c6.7-3.5,6.5-14.3-.4-17.4-5.1-2.3-10.7-.7-13.1,3.9C16.7,174.2,25.8,183.3,34.9,178.6Zm125.6,19.7c-21.1-7.6-27.2-33.6-11.5-49.3,6.1-6.1,11.9-8.5,21-8.5s14.9,2.4,21,8.5,8.5,11.9,8.5,21-2.4,14.9-8.5,21C183.1,199,170.7,201.9,160.5,198.3Zm14.4-19.7c6.7-3.5,6.5-14.3-.4-17.4-9-4.1-17.9,5.1-13.1,13.7C164,179.6,169.8,181.2,174.9,178.6Z"/>
</svg>
