<?xml version="1.0" encoding="UTF-8" standalone="no"?>
<svg
   xmlns:dc="http://purl.org/dc/elements/1.1/"
   xmlns:cc="http://creativecommons.org/ns#"
   xmlns:rdf="http://www.w3.org/1999/02/22-rdf-syntax-ns#"
   xmlns:svg="http://www.w3.org/2000/svg"
   xmlns="http://www.w3.org/2000/svg"
   id="svg8"
   version="1.1"
   viewBox="0 0 70.366646 70.48703"
   height="70.48703mm"
   width="70.366646mm">
  <defs
     id="defs2" />
  <metadata
     id="metadata5">
    <rdf:RDF>
      <cc:Work
         rdf:about="">
        <dc:format>image/svg+xml</dc:format>
        <dc:type
           rdf:resource="http://purl.org/dc/dcmitype/StillImage" />
        <dc:title></dc:title>
      </cc:Work>
    </rdf:RDF>
  </metadata>
  <g
     transform="translate(-45.607055,-53.835319)"
     id="layer1">
    <path
       id="path4496"
       d="m 52.838349,123.77856 c -7.439106,-2.66349 -9.582393,-11.85119 -4.05422,-17.37936 2.036614,-2.03661 4.211207,-2.95478 7.055556,-2.97905 1.26118,-0.0108 2.88175,0.11593 3.601265,0.28153 l 1.308211,0.30108 1.154868,-2.34195 1.154868,-2.341951 -4.77471,-19.1258 -4.774711,-19.1258 -2.921933,-0.17639 c -2.756977,-0.16643 -2.979981,-0.24143 -3.950173,-1.32848 -1.426356,-1.59816 -1.374013,-2.98241 0.171204,-4.52763 l 1.199444,-1.19944 h 4.656667 4.656666 l 1.114609,1.14652 c 1.001008,1.02968 1.307018,1.92856 3.002444,8.81945 l 1.887835,7.67291 h 25.041873 c 22.880728,0 25.129008,0.0515 26.051488,0.5964 2.02752,1.19768 2.02554,1.63567 -0.0551,12.19927 -1.78507,9.06292 -1.95212,9.66562 -2.95631,10.6658 -0.98172,0.97781 -2.21654,1.34584 -15.909695,4.74175 -13.322818,3.304081 -14.953114,3.637041 -15.895965,3.246491 -2.632054,-1.09023 -2.952648,-4.737971 -0.537637,-6.117211 0.517045,-0.29529 6.823071,-2.00017 14.013395,-3.78863 l 13.073312,-3.25173 1.00235,-5.17732 c 0.5513,-2.84752 1.07498,-5.37575 1.16374,-5.61829 0.12799,-0.34974 -4.3254,-0.44097 -21.52696,-0.44097 H 65.102383 l 2.687507,10.77315 2.687507,10.773151 -2.333821,4.6113 -2.333822,4.61129 0.50897,1.63708 c 1.065653,3.42764 -0.03735,7.59956 -2.717929,10.28014 -2.804675,2.80467 -7.178062,3.84604 -10.762446,2.56269 z m 5.066841,-6.94595 c 2.38095,-1.23125 2.309537,-5.02653 -0.11537,-6.13139 -1.810118,-0.82475 -3.782833,-0.23001 -4.622426,1.39359 -1.655943,3.20224 1.535553,6.39374 4.737796,4.7378 z m 44.32205,6.94595 c -7.439108,-2.66349 -9.582396,-11.85119 -4.054223,-17.37936 2.165243,-2.16525 4.197983,-2.98401 7.408333,-2.98401 3.21035,0 5.24309,0.81876 7.40833,2.98401 2.16525,2.16525 2.98402,4.19798 2.98402,7.40834 0,3.21035 -0.81877,5.24308 -2.98402,7.40833 -2.80467,2.80467 -7.17806,3.84604 -10.76244,2.56269 z m 5.06684,-6.94595 c 2.38095,-1.23125 2.30954,-5.02653 -0.11537,-6.13139 -3.20384,-1.45977 -6.3191,1.78899 -4.63283,4.83137 0.92521,1.66929 2.95789,2.22582 4.7482,1.30002 z"
       style="fill:#ffffff;fill-opacity:1;stroke-width:0.35277778" />
  </g>
</svg>
