<svg xmlns="http://www.w3.org/2000/svg" viewBox="0 0 200 139.9">
  <title>check</title>
  <path d="M65,138.3c-1.4-.8-7.7-7.6-14-15C27,95.2,27,95.1,27,91.6a11.3,11.3,0,0,1,6.8-9.7c5.3-2,8.4.3,22.8,17.2,7.5,8.7,14,15.9,14.3,15.9s76.2-68.8,82.6-75.2c3.2-3.2,3.4-3.3-50.4,30.9C85.1,82.1,71.7,90,70.3,90c-4.2,0-6.3-1.7-23.6-18.8L30,54.5l-6.3,6.1c-11,10.8-14.5,11.8-20.3,6S-1.1,56,15.3,40.3c9.7-9.4,12.6-11,17.4-9.8,1.7.4,9.8,7.7,20.9,18.6l18.1,18,52.8-33.5C156.5,13.2,178.2,0,179.7,0c3.8,0,7.6,2.5,13.6,9s8.4,12.2,4.4,17C195.3,29,76.3,137.8,74.2,138.9a9,9,0,0,1-9.2-.6Z"/>
</svg>
