<?xml version="1.0" encoding="UTF-8" standalone="no"?>
<svg
   xmlns:svg="http://www.w3.org/2000/svg"
   xmlns="http://www.w3.org/2000/svg"
   id="svg8"
   version="1.1"
   viewBox="0 0 70.538605 49.360306"
   height="49.360306mm"
   width="70.538605mm">
  <g
     transform="translate(-64.516412,-108.27818)"
     id="layer1">
    <g
       transform="translate(-9.8235805,33.276202)"
       id="layer1-7">
      <path
         style="fill:#000000;stroke-width:0.35277778"
         d="m 97.265873,123.80812 c -0.485069,-0.31019 -2.707569,-2.70354 -4.938889,-5.31856 -8.449148,-9.90207 -8.466666,-9.9252 -8.466666,-11.17805 0,-1.35412 1.10068,-2.92841 2.390199,-3.41868 1.869376,-0.71074 2.973342,0.11926 8.061521,6.06095 2.645879,3.0897 4.918695,5.61765 5.050701,5.61765 0.226723,0 26.866821,-24.258771 29.123961,-26.520601 1.12079,-1.12312 1.20582,-1.17521 -17.77535,10.88822 -6.35124,4.036511 -11.06898,6.812931 -11.576658,6.812931 -1.46377,0 -2.224572,-0.60884 -8.303847,-6.64527 l -5.905862,-5.864231 -2.208027,2.14709 c -3.910357,3.802441 -5.129453,4.160151 -7.182193,2.10741 -2.246292,-2.24629 -1.578183,-3.72749 4.186402,-9.28125 3.44017,-3.31436 4.463866,-3.89103 6.154174,-3.46679 0.583285,0.1464 3.456284,2.71663 7.360865,6.58516 l 6.404177,6.34504 18.612349,-11.83858 c 11.28429,-7.17749 18.94914,-11.83858 19.46776,-11.83858 1.36775,0 2.68285,0.86586 4.81821,3.17231 2.53462,2.73769 2.93938,4.30195 1.55589,6.013 -0.85047,1.05182 -42.84995,39.420641 -43.57642,39.809441 -1.021146,0.54649 -2.210611,0.47752 -3.252297,-0.18861 z"
         id="path138" />
    </g>
  </g>
</svg>
