<svg xmlns="http://www.w3.org/2000/svg" viewBox="0 0 140 139.9">
  <title>close</title>
  <path d="M3.4,136.6C-.4,132.8-1,129,1.6,125c.9-1.4,13.4-14.3,27.8-28.8L55.5,70,29.4,43.7C15,29.3,2.5,16.4,1.6,15-1,11-.4,7.2,3.4,3.4S11-1,15,1.6c1.4.9,14.3,13.4,28.7,27.8L70,55.5,96.2,29.4C110.7,15,123.6,2.5,125,1.6c4-2.6,7.8-2,11.6,1.8S141,11,138.4,15,21.2,133.6,16.6,137.1s-8.9,3.8-13.2-.5Zm120,.5c-4.6-3.4-34.4-33.4-36.8-37.1s-2-7.8,1.8-11.6S96,84,100,86.6s33.7,32.2,37.1,36.8,3.8,8.9-.5,13.2-7.9,4.4-13.2.5Z"/>
</svg>
