<?xml version="1.0" encoding="UTF-8" standalone="no"?>
<svg
   xmlns:svg="http://www.w3.org/2000/svg"
   xmlns="http://www.w3.org/2000/svg"
   id="svg8"
   version="1.1"
   viewBox="0 0 169.20311 169.21768"
   height="169.21768mm"
   width="169.20311mm">
  <g
     transform="translate(-29.892275,55.982595)"
     id="layer1">
    <path
       id="path4523"
       d="m 108.36428,113.02167 c -7.80255,-0.56794 -16.116303,-2.38392 -23.594495,-5.15377 -3.640015,-1.34823 -11.614929,-5.2663 -14.744781,-7.24411 -6.004665,-3.794448 -10.462488,-7.345788 -15.327091,-12.210398 -4.864605,-4.8646 -8.415951,-9.32243 -12.210401,-15.32709 -1.977807,-3.129854 -5.89588,-11.104768 -7.244108,-14.744784 -7.134839,-19.263016 -7.134839,-40.185072 0,-59.448088 1.348228,-3.640016 5.266301,-11.61493 7.244108,-14.744782 3.79445,-6.004666 7.345796,-10.462489 12.210401,-15.327092 4.864603,-4.864606 9.322426,-8.415952 15.327091,-12.210401 3.129852,-1.977808 11.104766,-5.895881 14.744781,-7.244109 19.257665,-7.132855 40.190425,-7.132855 59.448085,0 3.6038,1.334812 11.60262,5.259203 14.67568,7.200191 5.98693,3.78144 10.73884,7.567419 15.50164,12.350587 4.79058,4.811062 8.353,9.2934 12.10495,15.230824 1.97781,3.129852 5.89588,11.104766 7.24411,14.744782 7.13484,19.263016 7.13484,40.185072 0,59.448088 -1.34823,3.640016 -5.2663,11.61493 -7.24411,14.744784 -3.79445,6.00466 -7.34579,10.46249 -12.2104,15.32709 -4.8646,4.86461 -9.32242,8.41595 -15.32709,12.210398 -3.12985,1.97781 -11.10476,5.89588 -14.74478,7.24411 -11.40632,4.22479 -23.91457,6.02279 -35.85359,5.15377 z m 15.2461,-15.573248 c 10.57064,-1.48556 20.53313,-5.22246 29.05872,-10.89984 4.25072,-2.83065 7.29238,-5.32013 10.86404,-8.89179 11.12221,-11.122206 17.93389,-25.126712 19.92949,-40.974119 0.37771,-2.99948 0.37771,-13.130918 0,-16.130398 -1.38556,-11.002943 -5.14721,-21.26446802 -11.0377,-30.110077 -2.83065,-4.250721 -5.32012,-7.292381 -8.89179,-10.864043 -11.1222,-11.122206 -25.12671,-17.933887 -40.97411,-19.929485 -2.99948,-0.377712 -13.13092,-0.377712 -16.1304,0 -11.002943,1.385555 -21.264467,5.147207 -30.110076,11.037695 -4.250721,2.830651 -7.292381,5.320128 -10.864042,8.89179 -11.126308,11.12631 -17.942249,25.138977 -19.930336,40.97412 -0.376214,2.996557 -0.376214,13.133841 0,16.130398 1.661035,13.230172 6.760647,25.31859 15.015838,35.594409 2.43498,3.031 7.263213,7.85923 10.294205,10.29421 4.893644,3.93136 11.486802,7.86961 16.990685,10.14895 5.722736,2.36997 12.744836,4.1967 18.496186,4.81161 1.1829,0.12647 2.48946,0.26941 2.90347,0.31764 1.8174,0.21174 12.05655,-0.0737 14.38582,-0.40107 z M 80.56147,65.19512 c -2.087742,-1.239675 -3.167556,-2.940468 -3.167556,-4.989153 0,-0.753985 0.08629,-1.37088 0.191756,-1.37088 0.105467,0 0.256877,-0.266152 0.336467,-0.591448 0.09759,-0.398853 4.832521,-5.284964 14.540673,-15.004929 7.91778,-7.927413 14.39596,-14.50697 14.39596,-14.621236 0,-0.114266 -6.47818,-6.693823 -14.39596,-14.621236 C 82.754658,4.276273 78.019726,-0.60983802 77.922137,-1.008691 c -0.07959,-0.325296 -0.231,-0.591448 -0.336467,-0.591448 -0.105465,0 -0.191756,-0.623554 -0.191756,-1.385674 0,-1.521247 0.397154,-2.451503 1.593993,-3.733618 1.130979,-1.21156 2.356311,-1.763011 3.91743,-1.763011 0.753984,0 1.370879,0.08629 1.370879,0.191756 0,0.105467 0.266152,0.256877 0.591448,0.336467 0.398854,0.09759 5.284964,4.832521 15.004929,14.540674 7.927417,7.917781 14.506967,14.395964 14.621237,14.395964 0.11426,0 6.69382,-6.478183 14.62123,-14.395964 9.71997,-9.708153 14.60608,-14.443085 15.00493,-14.540674 0.3253,-0.07959 0.59145,-0.231 0.59145,-0.336467 0,-0.105465 0.61689,-0.191756 1.37088,-0.191756 1.56112,0 2.78645,0.551451 3.91743,1.763011 1.19684,1.282115 1.59399,2.212371 1.59399,3.733618 0,0.76212 -0.0863,1.385674 -0.19175,1.385674 -0.10547,0 -0.25629,0.266152 -0.33517,0.591448 -0.18029,0.74359398 -64.777192,65.436968 -65.916061,66.014509 -0.421855,0.21393 -0.799267,0.461551 -0.838696,0.550268 -0.03943,0.08872 -0.716908,0.152181 -1.505504,0.141032 -1.07416,-0.01519 -1.637313,-0.141109 -2.245089,-0.501998 z m 64.14997,0.330514 c 0,-0.105467 -0.26615,-0.257329 -0.59145,-0.337474 -0.86506,-0.213125 -20.55086,-19.899728 -21.12916,-21.130026 -0.90308,-1.921203 -0.46015,-4.315623 1.08394,-5.859715 1.54409,-1.544092 3.93851,-1.987018 5.85972,-1.083946 1.2303,0.578307 20.9169,20.264108 21.13002,21.129166 0.0801,0.325296 0.23201,0.591448 0.33748,0.591448 0.10546,0 0.19175,0.623554 0.19175,1.385674 0,1.521247 -0.39715,2.451503 -1.59399,3.733618 -1.13098,1.21156 -2.35631,1.763011 -3.91743,1.763011 -0.75399,0 -1.37088,-0.08629 -1.37088,-0.191756 z"
       style="fill:rgb(84, 153, 232);stroke-width:0.21507198" />
  </g>
</svg>
