<?xml version="1.0" encoding="UTF-8" standalone="no"?>
<!-- Created with Inkscape (http://www.inkscape.org/) -->

<svg
   xmlns:dc="http://purl.org/dc/elements/1.1/"
   xmlns:cc="http://creativecommons.org/ns#"
   xmlns:rdf="http://www.w3.org/1999/02/22-rdf-syntax-ns#"
   xmlns:svg="http://www.w3.org/2000/svg"
   xmlns="http://www.w3.org/2000/svg"
   xmlns:sodipodi="http://sodipodi.sourceforge.net/DTD/sodipodi-0.dtd"
   xmlns:inkscape="http://www.inkscape.org/namespaces/inkscape"
   width="210mm"
   height="297mm"
   viewBox="0 0 210 297"
   version="1.1"
   id="svg8"
   inkscape:version="0.92.1 r15371"
   sodipodi:docname="clothes.svg">
  <defs
     id="defs2" />
  <sodipodi:namedview
     id="base"
     pagecolor="#ffffff"
     bordercolor="#666666"
     borderopacity="1.0"
     inkscape:pageopacity="0.0"
     inkscape:pageshadow="2"
     inkscape:zoom="0.35"
     inkscape:cx="400"
     inkscape:cy="560"
     inkscape:document-units="mm"
     inkscape:current-layer="layer1"
     showgrid="false"
     inkscape:window-width="1280"
     inkscape:window-height="744"
     inkscape:window-x="-4"
     inkscape:window-y="-4"
     inkscape:window-maximized="1" />
  <metadata
     id="metadata5">
    <rdf:RDF>
      <cc:Work
         rdf:about="">
        <dc:format>image/svg+xml</dc:format>
        <dc:type
           rdf:resource="http://purl.org/dc/dcmitype/StillImage" />
        <dc:title></dc:title>
      </cc:Work>
    </rdf:RDF>
  </metadata>
  <g
     inkscape:label="Layer 1"
     inkscape:groupmode="layer"
     id="layer1">
    <path
       style="fill:#000000;stroke-width:0.33638817"
       d="m 58.699892,161.95868 c -2.319727,-1.0096 -2.145585,2.79506 -2.145585,-46.87669 0,-42.560444 -0.03012,-44.846904 -0.588679,-44.684914 -0.323774,0.0939 -3.71273,1.08804 -7.531014,2.20919 -3.818284,1.12116 -7.479606,2.03847 -8.13627,2.03847 -0.859926,0 -1.44584,-0.2588 -2.094382,-0.92507 -1.149933,-1.18138 -14.59668,-27.89191 -14.60611,-29.01348 -0.01888,-2.24601 0.268554,-2.41769 16.83409,-10.05446 8.584176,-3.95734 16.636105,-7.54498 17.893177,-7.97253 3.622315,-1.23203 9.109936,-2.72239 14.154127,-3.84406 6.644332,-1.47748 7.149298,-1.25446 8.771934,3.87428 3.675865,11.61848 15.623871,18.78718 27.51915,16.51124 8.42582,-1.61213 15.5019,-7.65433 18.25135,-15.58468 1.50939,-4.35361 1.7607,-4.7895 3.07891,-5.34028 1.13064,-0.47241 1.51403,-0.44471 5.46288,0.39467 4.40525,0.9364 11.84286,2.96174 15.34772,4.17935 1.11008,0.38565 8.96822,3.91328 17.46254,7.83918 16.38458,7.5726 16.68503,7.75274 16.67433,9.99729 -0.005,1.11481 -13.45635,27.82521 -14.61084,29.01348 -0.66065,0.67997 -1.22739,0.92482 -2.13909,0.92413 -0.68217,-6.8e-4 -4.53308,-0.98445 -8.55756,-2.18653 -4.02449,-1.20207 -7.39258,-2.18558 -7.48464,-2.18558 -0.0921,0 -0.16961,20.09499 -0.17234,44.655534 -0.004,35.02742 -0.0956,44.83685 -0.42517,45.4965 -0.23111,0.46253 -0.94791,1.10564 -1.59288,1.42913 -1.09917,0.55128 -3.96681,0.58736 -45.74411,0.57551 -36.797434,-0.0104 -44.754592,-0.0924 -45.621538,-0.46968 z"
       id="path34"
       inkscape:connector-curvature="0" />
  </g>
</svg>
