<svg xmlns="http://www.w3.org/2000/svg" viewBox="0 0 199.5 199.2">
  <title>donate</title>
  <path d="M162.4,177.7l-7.1,5c-23.4,16.2-57.4,21-85.4,12-17.8-5.8-27.1-11.5-40.6-25.1C17.4,157.8,11.8,149,6.4,134.2-.8,114.1-1.9,96,3,76c2.1-8.8,4.9-11.8,10.6-11.8,3.2,0,4.8.6,6.9,2.7s3.6,5.5,1.7,14.5c-2.4,11-2.8,17.9-1.7,27.4a79.5,79.5,0,0,0,19.6,43.7c37.7,42.8,107,33.3,131.8-18,19.1-39.8,2.4-87.7-37.2-106.8-29.8-14.3-67.5-8.4-90.2,14.2-2.9,3-4.1,3.5-8.2,3.5-6.6,0-9.4-2.8-9.4-9.6v-5l7-6c34.3-29.7,82.9-33,121.6-8.3,6.7,4.3,23.3,20.9,27.6,27.6,21.4,33.5,21.9,75.3,1.3,108.9-3.4,5.7-17.9,21.9-22,24.7ZM99.9,151.4c-5.4,0-8.5-2.3-9.5-6.9-.3-1.6-.6-10.1-.7-18.8V109.9H73.8c-18.1-.1-20.8-.5-23.6-3.3s-2.8-10.9,0-13.7,5.5-3.2,23.6-3.3H89.6V73.6c.1-8.7.4-17.1.7-18.7,1-4.7,4.1-7,9.5-7s8.5,2.3,9.5,7,1,81.9.2,87.6-3.6,8.9-9.7,8.9Zm42.8-42c-9.6,1.4-18.7.2-21.8-2.9s-2.8-10.9,0-13.7,9-3.7,16.3-3.4c11.2.5,14.5,2.8,14.5,10.3s-2.5,8.7-9,9.7Z"/>
</svg>
