<?xml version="1.0" encoding="UTF-8" standalone="no"?>
<!-- Created with Inkscape (http://www.inkscape.org/) -->

<svg
   xmlns:dc="http://purl.org/dc/elements/1.1/"
   xmlns:cc="http://creativecommons.org/ns#"
   xmlns:rdf="http://www.w3.org/1999/02/22-rdf-syntax-ns#"
   xmlns:svg="http://www.w3.org/2000/svg"
   xmlns="http://www.w3.org/2000/svg"
   xmlns:sodipodi="http://sodipodi.sourceforge.net/DTD/sodipodi-0.dtd"
   xmlns:inkscape="http://www.inkscape.org/namespaces/inkscape"
   width="210mm"
   height="297mm"
   viewBox="0 0 210 297"
   version="1.1"
   id="svg8"
   inkscape:version="0.92.1 r15371"
   sodipodi:docname="exit.svg">
  <defs
     id="defs2" />
  <sodipodi:namedview
     id="base"
     pagecolor="#ffffff"
     bordercolor="#666666"
     borderopacity="1.0"
     inkscape:pageopacity="0.0"
     inkscape:pageshadow="2"
     inkscape:zoom="0.35"
     inkscape:cx="400"
     inkscape:cy="560"
     inkscape:document-units="mm"
     inkscape:current-layer="layer1"
     showgrid="false"
     inkscape:window-width="1280"
     inkscape:window-height="744"
     inkscape:window-x="-4"
     inkscape:window-y="-4"
     inkscape:window-maximized="1" />
  <metadata
     id="metadata5">
    <rdf:RDF>
      <cc:Work
         rdf:about="">
        <dc:format>image/svg+xml</dc:format>
        <dc:type
           rdf:resource="http://purl.org/dc/dcmitype/StillImage" />
        <dc:title></dc:title>
      </cc:Work>
    </rdf:RDF>
  </metadata>
  <g
     inkscape:label="Layer 1"
     inkscape:groupmode="layer"
     id="layer1">
    <path
       style="fill:#000000;stroke-width:0.32596073"
       d="m 46.0858,201.35782 c -3.292912,-0.59753 -5.411435,-1.33402 -8.502626,-2.95589 -7.858058,-4.12291 -13.549055,-11.2171 -15.8075,-19.70507 l -0.737209,-2.77067 V 133.71428 91.502373 l 0.737209,-2.77067 c 2.838996,-10.669867 11.414743,-19.30628 22.080042,-22.236242 2.528608,-0.694657 3.207599,-0.719828 22.390464,-0.830045 21.851174,-0.125547 21.200713,-0.181499 22.285892,1.917008 0.415655,0.803785 0.498342,1.842411 0.412969,5.187263 -0.09275,3.634079 -0.196046,4.301683 -0.788052,5.093472 -0.374718,0.501172 -1.034789,1.010105 -1.466823,1.130961 -0.432035,0.120856 -8.943036,0.234359 -18.913337,0.25223 -10.615282,0.01903 -18.855452,0.168289 -19.883604,0.360173 -5.921257,1.105084 -11.894624,7.07845 -12.999708,12.99971 -0.447165,2.396 -0.447165,79.820097 0,82.216097 0.940416,5.03893 5.484535,10.31717 10.681718,12.40739 1.857542,0.74708 1.955209,0.75126 21.423692,0.91674 18.711368,0.15905 19.602124,0.19393 20.585636,0.80611 1.231417,0.76649 1.408049,1.55361 1.413124,6.29727 0.0039,3.66489 -0.412862,5.18214 -1.66431,6.05869 -0.681815,0.47756 -2.696337,0.52855 -19.836548,0.50212 -14.119566,-0.0218 -19.684082,-0.13946 -21.411029,-0.45283 z m 74.04473,-3.64494 c -1.51277,-0.79752 -2.4752,-1.78282 -3.13247,-3.20693 -0.55889,-1.21096 -0.60227,-2.44657 -0.60892,-17.34576 l -0.007,-16.04192 -24.691528,-0.0931 c -23.404391,-0.0883 -24.755804,-0.12508 -25.924641,-0.70582 -1.609564,-0.79972 -3.418813,-2.93772 -3.732964,-4.41126 -0.325364,-1.52613 -0.325364,-42.86143 0,-44.38756 0.314151,-1.47354 2.1234,-3.61154 3.732964,-4.41126 1.168837,-0.58074 2.52025,-0.61753 25.924641,-0.70582 l 24.691528,-0.0931 V 90.339453 c 0,-17.195552 0.0108,-17.315676 1.72685,-19.155353 2.07695,-2.226612 5.87009,-2.709328 8.39561,-1.068428 0.79703,0.517855 14.74829,14.269321 31.00279,30.558818 31.18268,31.2498 30.25652,30.23843 30.25652,33.03985 0,2.80141 0.92616,1.79005 -30.25652,33.03985 -16.2545,16.2895 -30.20576,30.04096 -31.00279,30.55882 -1.20221,0.7811 -1.78544,0.93933 -3.42259,0.9285 -1.14575,-0.008 -2.38357,-0.22927 -2.95132,-0.52857 z"
       id="path21"
       inkscape:connector-curvature="0" />
  </g>
</svg>
