<svg xmlns="http://www.w3.org/2000/svg" viewBox="0 0 472.6 386.1">
  <title>exit</title>
  <path d="M71,384.8a75.3,75.3,0,0,1-24.1-8.4A88.6,88.6,0,0,1,2.1,320.5L0,312.7V73.4l2.1-7.9a90,90,0,0,1,62.6-63c7.1-2,9.1-2,63.4-2.4,62-.3,60.1-.5,63.2,5.5,1.2,2.3,1.4,5.2,1.2,14.7s-.6,12.2-2.2,14.4a10,10,0,0,1-4.2,3.2c-1.2.4-25.4.7-53.6.7-30.1.1-53.5.5-56.4,1.1-16.8,3.1-33.7,20-36.8,36.8-1.3,6.8-1.3,226.3,0,233.1,2.6,14.2,15.5,29.2,30.3,35.1,5.2,2.2,5.5,2.2,60.7,2.6,53,.5,55.5.6,58.3,2.3s4,4.4,4,17.9c.1,10.4-1.1,14.7-4.7,17.1-1.9,1.4-7.6,1.5-56.2,1.5-40-.1-55.8-.4-60.7-1.3Zm209.9-10.3a19.1,19.1,0,0,1-8.9-9.1c-1.6-3.5-1.7-7-1.7-49.2V270.7l-70-.2c-66.4-.3-70.2-.4-73.5-2s-9.7-8.4-10.6-12.6-.9-121.4,0-125.8,6-10.2,10.6-12.5,7.1-1.7,73.5-2l70-.2V70.1c0-48.8,0-49.1,4.9-54.3s16.6-7.7,23.8-3c2.2,1.4,41.8,40.4,87.8,86.6,88.4,88.6,85.8,85.7,85.8,93.6s2.6,5.1-85.8,93.7c-46,46.2-85.6,85.1-87.8,86.6s-5.1,2.7-9.7,2.6-6.8-.6-8.4-1.4Z"/>
</svg>
