<svg xmlns="http://www.w3.org/2000/svg" viewBox="0 0 198.9 199.7">
  <title>faq</title>
  <path d="M93,196.1l-3.5-3.5V166.2l3.4-3.4c2.4-2.5,4.3-3.4,6.6-3.4s4.1.9,6.6,3.4,3.4,3.9,3.4,9.5,0,6.8,8,5c22.3-5,43.1-21.4,53.7-42.4a86.9,86.9,0,0,0,7.9-30.5C182.6,47.3,127,5.1,73.2,23.9A80.7,80.7,0,0,0,20.4,87.6c-1.4,8.6-.6,23.7,1.6,32.3,3.7,14.1,14.7,31.2,26.4,41,6.1,5.1,7,6.4,7,10.8a9.7,9.7,0,0,1-14.3,8.5c-4-2.1-11.9-9.3-17.5-16A105.7,105.7,0,0,1,1.8,120.9c-2.2-9.7-2.4-31.9-.4-41A102,102,0,0,1,80,1.3c7.7-1.7,31.2-1.7,39,0,39.7,8.7,69.8,38.9,78.6,78.6,1.7,7.8,1.7,31.2,0,39-9.9,44.9-46.6,76.9-91.8,80.1l-9.2.7Zm-.2-55.2-3.6-3.5.4-10.3c.3-8.7.8-11.1,3.2-15.9,3.2-6.6,7.5-10.7,15.6-14.8S119,88.2,119,79.3c0-5.4-.5-7.2-2.7-10.6-4.1-6.2-9-8.8-16.8-8.8-5.1,0-7.4.5-10.4,2.4a20.1,20.1,0,0,0-9.3,15.2c-.5,4.3-1.3,6.1-3.9,8.6-4.5,4.5-8.5,4.5-13.2-.2s-3.5-3.6-2.9-10.3c.8-8.8,6-19.4,12.2-25.2a52.4,52.4,0,0,1,11.3-7.3c6-2.9,7.6-3.2,16.2-3.2s10.1.3,16.1,3.2c9.3,4.4,15.1,10,19.6,19.1,3.6,7.2,3.8,8.1,3.8,17.1s-.3,10.2-3.2,16.2c-4.2,8.9-9.1,14.1-17,18s-9.3,6.3-9.3,16.4c0,7.4-.2,7.8-3.4,11.1s-8.6,4.6-13.3-.1Z"/>
</svg>
