<svg xmlns="http://www.w3.org/2000/svg" viewBox="0 0 189.6 180">
  <title>hand_like</title>
  <path d="M63,176.6c-4.3-4.4-4.5-8.3-.5-12.8l3-3.3,43.7-.5,43.8-.5,8.3-20.5,8.2-20.5V80H143.1c-17.6,0-27.3-.4-28.8-1.1-3.3-1.7-5.6-5.1-5.6-8.2s5.8-39.4,7.5-47.9l.6-2.8H104.9L87.5,46.2C78,60.6,68.9,73.9,67.3,75.6S62.1,79.7,52.1,83L39.6,87.2v14.3l4.7,2.5c16.9,8.9,20.2,33.2,6.3,47-6.1,6.1-11.9,8.5-21,8.5s-14.8-2.4-21-8.5C-5.2,137.2-1.9,112.9,15,104l4.6-2.5V89.3c0-16.4.2-16.5,19.4-22.9l14.2-4.7L72.1,33.3C82.5,17.6,92.4,3.7,93.9,2.4S97.3,0,114.1,0s17.4.1,20,2.1c4.8,3.9,4.9,5.1.5,30.9-2.2,13.1-4,24.6-4,25.4s3.1,1.6,26.1,1.6h26.1l3.4,3.4,3.4,3.4V122L179,148.5c-8.4,20.9-11.2,27-13.5,29l-3,2.5H66.4Zm-28.5-38c6.7-3.5,6.5-14.3-.3-17.4-5.2-2.3-10.8-.7-13.1,3.9C16.4,134.2,25.4,143.3,34.5,138.6Z"/>
</svg>
