<svg xmlns="http://www.w3.org/2000/svg" viewBox="0 0 199.6 199.4">
  <title>help</title>
  <path d="M85,197.8c-1.4-.9-9-9.8-17-19.9L53.5,159.6H6.8l-3.4-3.4L0,152.7V26.3l3.4-3.4,3.4-3.4H123.2l3.4,3.4c4.6,4.6,4.6,8.5,0,13.2l-3.4,3.4H20v100H40.1c16.7,0,20.5.2,22.7,1.6s8,8.3,14.5,16.5S89.5,172.5,90,172.5s6.1-6.7,12.7-14.9,13-15.7,14.5-16.5,6-1.6,22.7-1.6H160V58l-4.6-2.5c-17-9-20.2-33.2-6.4-47C155.1,2.3,160.9,0,170,0s14.9,2.3,21,8.5c13.8,13.8,10.6,38-6.4,47L180,58v94.7l-3.4,3.4-3.4,3.4H126.5l-13.5,17c-7.4,9.4-15,18.4-16.8,20-3.7,3.2-7.4,3.6-11.2,1.2ZM174.9,38c4.7-2.4,6.3-8.3,3.7-13.4-3.5-6.7-13.7-6.7-17.2,0C156.7,33.7,165.8,42.7,174.9,38ZM43.4,116.1c-4.6-4.7-4.6-8.6,0-13.2l3.4-3.4h56.4l3.4,3.4c2.4,2.4,3.4,4.3,3.4,6.6s-1,4.1-3.4,6.6l-3.4,3.4H46.8Zm0-40c-4.6-4.7-4.6-8.6,0-13.2l3.4-3.4h86.4l3.4,3.4c4.6,4.6,4.6,8.5,0,13.2l-3.4,3.4H46.8Z"/>
</svg>
