<svg xmlns="http://www.w3.org/2000/svg" viewBox="0 0 1039 1039.6">
  <title>info-full</title>
  <path d="M480.8,1038.9c-104.4-9.7-194.6-43.9-276-104.7-25.6-19.1-80.8-74.4-100-100C61,775.5,30.5,711.3,14,642.6,2.8,596.2,0,571.3,0,519.5s2.8-76.6,14-123c16.5-68.7,47-132.9,90.8-191.6,19.2-25.6,74.4-80.9,100-100C277.6,50.6,356.9,17.7,449.7,3.6c31.5-4.8,107.1-4.8,139.9,0,90.6,13.3,171.9,47,244.5,101.3,25.7,19.1,80.9,74.4,100,100,54.4,72.7,87.2,152.1,101.3,244.9,4.8,31.5,4.8,107.1,0,139.9-8.3,56.2-24.3,108.5-48.1,157.3-27.4,56.1-54.1,93.2-100.6,139.7S803,960,746.9,987.4a526.2,526.2,0,0,1-156.2,47.8c-22.5,3.2-90.9,5.5-109.9,3.7ZM548,807.1c14.4-6.6,29-22,34.4-36.6,4.1-10.8,4.2-14.9,4.2-160.4s-.1-149.6-4.2-160.7c-4.9-12.9-19.2-28.9-31.6-35.2-18.6-9.5-44.1-9.5-62.6,0-12.4,6.3-26.8,22.3-31.6,35.2-4.2,11.1-4.2,14.5-4.2,160.7s.1,149.6,4.1,160.4c5,13.3,19.5,29.4,32.1,35.7,18.7,9.4,39.8,9.7,59.4.9Zm-.9-454.6c39.4-14.6,50.2-69.4,19.6-100.4-23.1-23.4-67.2-24.3-93.8-1.9-17.1,14.4-23.9,48.7-14,70.3,6.7,14.7,13.5,22.2,25.9,29,18.2,9.9,40.8,11,62.3,3Z"/>
</svg>
