<svg version="1.1" width="720" height="110"
     viewBox="0 0 720 110"
     baseProfile="full"
     xmlns="http://www.w3.org/2000/svg"
     xmlns:xlink="http://www.w3.org/1999/xlink"
     xmlns:ev="http://www.w3.org/2001/xml-events">
    <title>Oscilograff</title>
    <desc></desc>
    <defs></defs>
    <g>
        <image xlink:href="logo.jpg" x="0" y="0"></image>
        <path id="sparkle" d="M 3 -3 L 1.3 -0.7 L 5 0 L 1.3 0.7 L 3 3 L 0.7 1.3 L 0 5 L -0.7 1.3 L -3 3 L -1.3 0.7 L -5 0 L -1.3 -0.7 L -3 -3 L -0.7 -1.3 L 0 -5 L 0.7 -1.3 L 3 -3"
              fill="#FFFFFF" stroke="white" stroke-opacity="0.5" stroke-width="5px" ></path>

        <path id="pathFull" d="M10 57 H 20 L 22 56 L 24 55 L 26 53 L 28 51 L 30 48 L 32 49 L 34 51 L 36 53 L 38 55 L 40 56 L 48 56.5 L 60 55
         L 62 54 L 64 51 L 66 44 L 68 37 H 70 L 72 45 L 74 50 L 76 53 L 78 56.5 H 80 L 82 57 L 84 62 L 86 67 L 89 9 L 92 50 L 94 91 L 96 73
         L 98 56 L 110 55 L 112 55 L 114 53 L 116 49 L 118 47 L 120 49 L 122 52 L 124 55 L 126 57 L 322 56"
              fill="transparent" stroke="transparent" stroke-opacity="0.2" stroke-width="1px"></path>
        <animateTransform
                id="animationTranslate"
                xlink:href="#sparkle"
                attributeName="transform"
                attributeType="XML"
                type="translate"
                calcMode="linear"
                values="10 57; 12 57; 14 57; 16 57; 18 57; 20 57; 22 56; 24 55; 26 53; 28 51; 30 48; 32 49; 34 51; 36 53; 38 55; 40 56; 42 56;
                 44 56; 46 56; 48 55.5; 50 55.5; 52 55.5; 54 55; 56 55; 58 55; 60 55; 62 54; 64 51; 66 44; 68 37; 70 37; 72 45; 74 50; 76 53; 78 56.5;
                 80 56.5; 82 57; 84 62; 86 67; 89 9; 92 50; 94 91; 96 73; 98 56; 100 56; 102 56; 104 55.5; 106 55.5; 108 55; 110 55; 112 55;
                 114 53; 116 49; 118 47; 120 49; 122 52; 124 55; 126 57; 128 57; 130 57; 132 57; 134 57; 136 57; 138 57; 140 57; 142 57; 144 57;
                 146 57; 148 57; 150 57; 152 57; 154 57; 156 57; 158 57; 160 56.5; 162 56.5; 164 56.5; 166 56.5; 168 56.5; 170 56.5; 172 56.5;
                 174 56.5; 176 56.5; 178 56.5; 180 56.5; 182 56.5; 184 56.5; 186 56.5; 188 56.5; 190 56.5; 192 56.5; 194 56.5; 196 56.5; 198 56.5;
                 200 56.5; 202 56.5; 204 56.5; 206 56.5; 208 56.5; 210 56.5; 212 56.5; 214 56.5; 216 56.5; 218 56.5; 220 56.5; 222 56.5; 224 56.5;
                 226 56.5; 228 56.5; 230 56.5; 232 56; 234 56; 236 56; 238 56; 240 56; 242 56; 244 56; 246 56; 248 56; 250 56; 252 56; 254 56;
                 256 56; 258 56; 260 56; 262 56; 264 56; 266 56; 268 56; 270 56; 272 56; 274 56; 276 56; 278 56; 280 56; 282 56; 284 56; 286 56;
                 288 56; 290 56; 292 56; 294 56; 296 56; 298 56; 300 56; 302 56; 304 56; 306 56; 308 56; 310 56; 312 56; 314 56; 316 56; 318 56;
                 320 56; 322 56"
                dur="3s"
                begin="0s"
                repeatCount="indefinite"
                fill="freeze"
        />

    </g>
</svg>