<svg xmlns="http://www.w3.org/2000/svg" viewBox="0 0 219.6 179.6">
  <title>mail</title>
  <path d="M3.4,176.2,0,172.8V56.4L3.4,53c2.3-2.3,4.3-3.4,6.4-3.4s13.7,6.8,41.5,24.1l38.5,24,28.6-19c32-21.3,32.4-21.4,38.2-15.7,4,4.1,4.4,8,1.2,12.1s-64.4,44.5-67.7,44.5-12.6-5.9-61.8-36.8L20,77.6v82H180V58l-3.4-1.6a29.9,29.9,0,0,1-12.7-12.2l-2.4-4.6H26.8l-3.4-3.4c-2.5-2.4-3.4-4.3-3.4-6.6s.9-4.1,3.4-6.6l3.4-3.4H161.5L164,15c8.9-16.9,33.2-20.2,47-6.4s10.6,38.1-6.4,47.1L200,58.1V172.8l-3.4,3.4-3.4,3.4H6.8Zm191.5-138c4.7-2.5,6.3-8.3,3.7-13.4-3.5-6.7-13.7-6.7-17.2,0C176.7,33.9,185.8,42.9,194.9,38.2Z"/>
</svg>
