<svg xmlns="http://www.w3.org/2000/svg" viewBox="0 0 975 975.2">
  <title>new_wallet_gray</title>
  <path class="a" d="M436.5,837.8c-29.1-2.5-55.4-13.7-81.7-35C332.7,785.1,53.9,503.9,44.2,489.7,27.4,465,19.4,441.4,17.5,411.3a147.7,147.7,0,0,1,24.9-92.7c6.7-10,49.4-54.3,148-153.5C347.9,6.6,338.1,14.9,369.2,14.9c27.3,0,31.7,2.9,82.9,53.7l43.4,42.9,39.1-38.8c35.4-34.9,40.3-39.2,50.9-43.1,16.9-6.3,36.3-6,51.5.9,9.4,4.2,17.8,11.5,48.3,42l36.8,36.9,7.1-3.1c4.5-2,12.9-3.2,22.7-3.2,25.4-.1,30.3,3.1,76.4,49.5,25.3,25.6,40.8,42.7,43.8,48.7,6.4,12.6,7.9,33.7,3.3,47.7l-3.3,10.2,36.2,36.4c43.2,43.3,47.3,49.9,47.3,75.6,0,30.3,13.4,15.1-211.9,240C586.4,768.3,541.9,811.7,532.6,817c-31,17.8-59.5,24-96.1,20.8Z"/>
  <path class="b" fill="white" d="M274.4,972.4c-13.6-7.6-13.2-29.1.7-35.4,4-1.8,56.6-2.4,213.9-2.4H697.6l6.9,6.9c5,5,7,8.7,7,13.4s-2,8.4-7,13.4l-6.9,6.9H488.4c-169.7-.1-210.1-.6-214-2.8ZM435.7,855c-30.3-2.7-57.6-14.4-85-36.4C327.8,800.2,38.1,508.1,28.1,493.3,10.7,467.6,2.3,443.2.3,411.9a154,154,0,0,1,25.9-96.3c6.9-10.4,51.4-56.5,153.8-159.5C343.6-8.5,333.4.1,365.7.1c28.4,0,32.9,2.9,86.2,55.7l45,44.6,40.7-40.2c36.7-36.4,41.8-40.8,52.8-44.9,17.6-6.5,37.7-6.1,53.5.9,9.8,4.4,18.5,12,50.2,43.7l38.2,38.3,7.4-3.2c4.6-2,13.4-3.3,23.6-3.3,26.3-.1,31.4,3.2,79.3,51.5,26.3,26.5,42.4,44.3,45.6,50.5,6.6,13.1,8.1,35,3.4,49.6l-3.5,10.5,37.7,37.8c44.8,45.1,49,51.9,49,78.6,0,31.5,14,15.7-220,249.4C591.3,782.7,545.1,827.7,535.4,833.3c-32.1,18.5-61.8,24.9-99.7,21.7Zm44.9-42.8c5.6-1.2,17-5.4,25.4-9.3,15-7,19.2-11,220.3-211.8,219-218.7,211.1-210.1,208-227.4-1.3-6.6-6.7-13.1-36.3-42.9-19.2-19.3-35.8-35-37-35s-8.1,5.9-15.3,13.2l-13.1,13.2,22.7,22.9c12.5,12.6,23.7,25.5,24.9,28.7,4.1,10.8-.2,16.9-37.2,53.7-33,32.9-35.7,35-42.8,35-9.8,0-14.7-2.7-18.6-10.1-6.4-12.4-4.9-15.1,23.4-43.7,14.6-14.7,26.5-27.6,26.5-28.7s-6-7.9-13.2-15l-13.2-13.1-33.5,33c-40.7,40.1-47.6,44.1-74.4,44s-30.5-2.6-78.5-50.6-50.7-51.7-50.6-80.5c0-26.6,2.3-30.4,43.3-71.7l33.9-34-14.1-14.3-14.1-14.2L590.2,180c-26.1,25.8-27,26.4-35.7,26.4-10.5-.1-17.3-4.7-19.6-13.2-3.2-12.2-1-15.3,36-52.4s36.1-36.1,44.9-36.1,9.6.8,32.5,23.4c13,12.9,24.6,23.4,25.7,23.4s7.9-5.9,15.1-13.2L702.2,125,666.7,89.4C628,50.7,624,48.1,608.8,52c-7.2,1.9-33.8,27.7-210.6,204.2C253.2,401,193.3,459.6,186.7,462.8c-13.6,6.9-36.1,7.7-51.1,2.1a67.7,67.7,0,0,1-36.2-33.1c-5.5-10.9-6.3-14.6-6.3-29.1,0-29.1-1.7-26.8,109.3-137.8,96.2-96,97.4-97.1,105.5-97.1,12.9,0,22.8,11.8,19.9,24-.8,3.6-34.1,38.5-97.4,102.1-103.3,103.9-101.3,101.4-96,117.4,3.4,10.2,13.4,16.8,25.6,16.8h9.4l149-148.9,149-149L425.2,87.8C402,64.5,380.5,44.2,377.5,42.6a25.9,25.9,0,0,0-23.6,0c-3,1.6-70.2,67.7-149.2,146.9L61,333.5l-8.2,17.3c-16.7,35.3-16.8,67.9-.2,103.5l8,17,153,153.8c84.1,84.7,158.4,158.3,165,163.6,29.9,24.4,62.9,32,102,23.5Zm53.7-115.4c-4.4-4.5-5.9-7.9-5.9-13.7,0-7.3,2-9.8,37.2-44.9S603.3,601,610.2,601c14.6,0,24.6,14.4,18.9,27.5-1.4,3.3-18.1,21.4-37,40.1-33.8,33.4-34.7,34.1-43.1,34.1C542.1,702.7,539.1,701.5,534.3,696.8ZM665.4,576.6c-6.6-2.7-10.9-10.2-10.9-19.1s1.5-9.6,35.9-44.2c24.7-24.9,37.8-36.6,41.9-37.5,12.7-2.8,23.9,7.4,23.9,21.7,0,5.8-4.1,10.8-34.1,41C682,578.9,677.9,581.7,665.4,576.6ZM293.2,454.7c-7.6-4.6-12-15.5-9.1-22.7,1-2.7,18.3-21.1,38.3-41,28.7-28.5,37.6-36.1,41.8-36.1,16.6,0,26.5,15.7,18.9,30.1-3.5,6.6-65.3,68.2-71.7,71.4S300.5,459.2,293.2,454.7ZM415.9,328.4c-7.3-5.7-9.2-16.8-4.5-25.6,2-3.6,18.4-21.2,36.4-39,35.1-34.6,39.1-37.1,51.7-31.8,7.9,3.3,12.8,13.2,11.1,22.2-.8,4.4-10.3,15.4-33.9,39.4-18,18.2-35.2,34.5-38.2,36.1-7.8,4-16.5,3.5-22.6-1.3ZM347.4,157.1c-2.8-1.4-6.7-5.9-8.8-10-3.2-6.7-3.3-8.2-.7-14.2,3.5-8.2,14.5-19,22.2-21.9,10.3-3.9,22.9,3.8,25.1,15.2,1.3,7.4-1.1,13.3-9.1,21.9-10,10.8-19.2,13.7-28.7,9ZM781.9,305.8l71.9-72v-22l-37.1-37.4c-20.4-20.6-39.6-38.7-42.6-40.3a22.4,22.4,0,0,0-21.6,0c-3,1.6-36.4,33.9-74.2,71.8-73.5,73.6-74.1,74.5-70.1,89.9,1.4,5.2,10.5,15.8,33.8,39.4,41,41.7,45,44.8,58,43.6l9.9-1,72-72ZM682,331.3c-34.7-12.7-39.9-61.1-8.8-81.6,7.5-5,10.3-5.6,25-5.6s17.6.6,25,5.5c24.2,16,27.4,50.1,6.7,70.8C716.2,334,699.7,337.8,682,331.3Z"/>
</svg>
