<?xml version="1.0" encoding="UTF-8" standalone="no"?>
<svg
   xmlns:dc="http://purl.org/dc/elements/1.1/"
   xmlns:cc="http://creativecommons.org/ns#"
   xmlns:rdf="http://www.w3.org/1999/02/22-rdf-syntax-ns#"
   xmlns:svg="http://www.w3.org/2000/svg"
   xmlns="http://www.w3.org/2000/svg"
   id="svg8"
   version="1.1"
   viewBox="0 0 343.9585 344.04395"
   height="344.04395mm"
   width="343.9585mm">
  <defs
     id="defs2" />
  <metadata
     id="metadata5">
    <rdf:RDF>
      <cc:Work
         rdf:about="">
        <dc:format>image/svg+xml</dc:format>
        <dc:type
           rdf:resource="http://purl.org/dc/dcmitype/StillImage" />
        <dc:title></dc:title>
      </cc:Work>
    </rdf:RDF>
  </metadata>
  <g
     transform="translate(100.99826,-3.0923532)"
     id="layer1">
    <path
       id="path4496"
       d="M 53.00453,298.66342 C 42.73365,297.776 33.451785,293.80305 24.152328,286.31372 16.381852,280.05574 -81.996801,180.85893 -85.393967,175.85638 c -5.933437,-8.73737 -8.767064,-17.03722 -9.446034,-27.66795 -0.74673,-11.69151 2.297806,-23.01958 8.787831,-32.69763 2.358144,-3.51652 17.450315,-19.164439 52.222789,-54.14582 C 21.74534,5.436386 18.277574,8.350378 29.236257,8.350378 c 9.633694,0 11.187769,1.004872 29.269802,18.92591 L 73.802889,42.436921 87.608954,28.756125 C 100.06763,16.410502 101.81949,14.925101 105.55927,13.536008 c 5.95904,-2.213409 12.80782,-2.1007 18.15454,0.298765 3.33504,1.496677 6.28544,4.064291 17.03379,14.82382 l 13.00008,13.0136 2.49797,-1.093012 c 1.57372,-0.688595 4.54247,-1.101338 8.02362,-1.11552 8.93162,-0.03639 10.66651,1.089431 26.93074,17.476091 8.93931,9.006599 14.39595,15.064165 15.47689,17.181287 2.25527,4.417201 2.76445,11.871108 1.14845,16.811776 l -1.17241,3.584416 12.78485,12.849369 c 15.22235,15.29917 16.66345,17.60613 16.66435,26.67688 9.6e-4,10.70524 4.75482,5.31901 -74.73959,84.68344 -55.49973,55.40897 -71.188231,70.69883 -74.486801,72.5941 -10.920088,6.27441 -20.983551,8.45591 -33.871219,7.3424 z"
       style="fill:#000000;stroke-width:0.69070596" />
  </g>
  <g
     style="display:inline"
     transform="translate(3.3859497e-6,6.1697369e-6)"
     id="layer2">
    <g
       transform="translate(219.84689,134.06188)"
       id="layer1-0">
      <path
         id="path4575"
         d="m -123.04912,208.98076 c -4.8087,-2.66525 -4.65091,-10.25434 0.25973,-12.49178 1.41955,-0.64679 19.94323,-0.8572 75.464548,-0.8572 h 73.583194 l 2.439548,2.43954 c 1.75791,1.75791 2.439548,3.0811 2.439548,4.7356 0,1.6545 -0.681638,2.97768 -2.439548,4.73559 l -2.439548,2.43955 -73.796332,-0.0254 c -59.87656,-0.0207 -74.11979,-0.2047 -75.51114,-0.97587 z m 56.899949,-41.43479 C -76.818693,166.62411 -86.460813,162.49696 -96.121209,154.71694 -104.19328,148.21609 -206.39028,45.169176 -209.9193,39.972457 c -6.16373,-9.076489 -9.10733,-17.69847 -9.81266,-28.741816 -0.77571,-12.14528311 2.38699,-23.913025 9.12891,-33.966719 2.44967,-3.653001 18.12761,-19.908261 54.24971,-56.247361 57.731724,-58.078571 54.12936,-55.051471 65.51338,-55.051471 10.007608,0 11.622,1.04387 30.405847,19.66047 l 15.890542,15.749071 14.341917,-14.211791 c 12.942234,-12.82479 14.762079,-14.36785 18.647009,-15.81085 6.1903324,-2.29932 13.3049374,-2.18224 18.8591786,0.31036 3.4644814,1.55476 6.5293934,4.22203 17.6949184,15.39917 l 13.50465,13.518701 2.594918,-1.135441 c 1.634799,-0.71532 4.718775,-1.14408 8.33504,-1.15882 9.278276,-0.0378 11.080506,1.13172 27.975999,18.154391 9.286269,9.35617 14.954703,15.64885 16.077591,17.84814 2.342799,4.58865 2.87175,12.33186 1.193018,17.46429 l -1.217909,3.72354 13.281061,13.348085 c 15.81318,15.892974 17.31021,18.289465 17.31114,27.7122839 0.001,11.120745 4.93937,5.525454 -77.640444,87.9702291 -57.65382,57.559541 -73.951236,73.442841 -77.377833,75.411671 -11.343927,6.51794 -21.79798,8.78411 -35.185854,7.62738 z m 15.848761,-15.06722 c 1.973164,-0.42465 6.009182,-1.90227 8.968927,-3.28359 5.279699,-2.46404 6.747303,-3.87556 77.691186,-74.722462 77.271917,-77.1662881 74.503467,-74.13997811 73.379057,-80.2138071 -0.43382,-2.343373 -2.36587,-4.6278299 -12.801897,-15.1370089 -6.760031,-6.807416 -12.635246,-12.377121 -13.056025,-12.377121 -0.420786,0 -2.847168,2.100775 -5.391953,4.668385 l -4.626883,4.668377 8.01967,8.0675 c 4.410825,4.437122 8.368511,9.0019259 8.794858,10.1440069 1.421073,3.806707 -0.07146,5.95954399 -13.134405,18.9454381 -11.646662,11.577945 -12.582422,12.342456 -15.107082,12.342456 -3.439713,0 -5.180208,-0.951531 -6.53593,-3.573206 -2.259215,-4.368851 -1.749557,-5.321788 8.243987,-15.4142131 5.130226,-5.180983 9.327684,-9.737428 9.327684,-10.125424 0,-0.387996 -2.089186,-2.776069 -4.642639,-5.306821 L 64.185505,-13.440115 52.348839,-1.7933241 C 37.998914,12.326414 35.581681,13.75558 26.114849,13.717244 16.722775,13.679214 15.362189,12.802377 -1.5815277,-4.1318831 -18.815536,-21.35627 -19.451806,-22.368438 -19.438131,-32.537723 c 0.01263,-9.387796 0.819014,-10.721196 15.2924301,-25.286686 l 11.936745,-12.01267 -4.9729615,-5.01136 -4.9729544,-5.01136 -9.4705982,9.31076 c -9.233963,9.07811 -9.5486,9.31035 -12.592539,9.29479 -3.713983,-0.0189 -6.12191,-1.63793 -6.916873,-4.65051 -1.13177,-4.28894 -0.381308,-5.3815 12.688995,-18.47336 12.580771,-12.60153 12.7478226,-12.73588 15.8354511,-12.73588 3.01717581,0 3.39728611,0.27333 11.4748597,8.25141 4.5948742,4.53828 8.6701402,8.25142 9.0561482,8.25142 0.386008,0 2.78483,-2.10168 5.330714,-4.6704 l 4.628885,-4.67039 -12.54227,-12.562921 C 1.7049239,-116.1703 0.26930724,-117.0978 -5.0743939,-115.70243 c -2.5271136,0.65989 -11.9150261,9.76262 -74.2853391,72.028671 -51.158777,51.0732469 -72.307757,71.73269 -74.621477,72.894166 -4.78248,2.400795 -12.73671,2.714622 -18.04339,0.711889 -5.4523,-2.057687 -10.07563,-6.281801 -12.76414,-11.661973 -1.91487,-3.831999 -2.19812,-5.155189 -2.19812,-10.2684961 0,-10.265016 -0.63157,-9.468797 38.55924,-48.6115859 33.92262,-33.88106 34.33548,-34.2613 37.20003,-34.2613 4.56811,0 8.03169,4.18201 7.0237,8.48059 -0.29671,1.26533 -12.04737,13.5837 -34.34594,36.005288 -36.47035,36.6715609 -35.7437,35.7836729 -33.88921,41.409106 1.18996,3.609634 4.74496,5.946829 9.04542,5.946829 h 3.29063 l 52.56955,-52.551463 52.569561,-52.55147 -14.888605,-14.942861 c -8.188731,-8.21859 -15.760493,-15.4056 -16.826138,-15.97115 -2.471951,-1.31189 -5.84807,-1.31273 -8.322676,-0.002 -1.065645,0.56442 -24.747802,23.892601 -52.627012,51.840411 l -50.68949,50.814205 -2.89531,6.09887 c -5.91177,12.4529529 -5.93365,23.938712 -0.0695,36.500656 l 2.80384,6.006297 53.97805,54.264893 c 29.68793,29.845678 55.883588,55.813208 58.212581,57.705608 10.56831,8.5872 22.18843,11.26592 35.987769,8.29608 z m 18.958935,-40.74094 c -1.581617,-1.58161 -2.097352,-2.76726 -2.097352,-4.82169 0,-2.57642 0.712183,-3.43653 13.116159,-15.840503 12.2097308,-12.20973 13.296815,-13.116159 15.7302571,-13.116159 5.17380093,0 8.6780612,5.076793 6.685962,9.686255 -0.5116952,1.184006 -6.3964235,7.560992 -13.0771761,14.171087 -11.890451,11.76471 -12.211331,12.01836 -15.203659,12.01836 -2.421933,0 -3.492472,-0.43562 -5.154191,-2.09735 z m 46.23225,-42.38248 c -2.334454,-0.942068 -3.843723,-3.595442 -3.843723,-6.757455 0,-2.726045 0.528226,-3.375739 12.680054,-15.595788 8.710442,-8.759341 13.330085,-12.894016 14.756432,-13.207297 4.477252,-0.983368 8.439222,2.61625 8.439222,7.667406 0,2.039864 -1.450132,3.782462 -12.018362,14.442247 C 20.757192,70.174207 19.317565,71.141761 14.890775,69.35533 Z M -116.41712,26.35129 c -2.68905,-1.639684 -4.21645,-5.457412 -3.20925,-8.021535 0.37111,-0.944766 6.45518,-7.448902 13.52017,-14.4536341 10.129018,-10.042637 13.245978,-12.735877 14.739585,-12.735877 5.872279,0 9.361586,5.551551 6.674316,10.618966 -1.229618,2.318711 -23.053511,24.0440861 -25.293991,25.1798111 -2.235,1.13294 -3.8512,0.985233 -6.43083,-0.587731 z m 43.279698,-44.56982 c -2.547225,-2.003651 -3.231253,-5.924837 -1.571263,-9.007257 0.696427,-1.29319 6.473191,-7.489362 12.837255,-13.769272 12.370066,-12.20649 13.799835,-13.08745 18.233663,-11.23488 2.775029,1.15948 4.523195,4.65528 3.9273,7.85342 -0.288972,1.55091 -3.629115,5.42831 -11.953119,13.875783 -6.353645,6.447883 -12.423966,12.179028 -13.489611,12.735876 -2.738307,1.430888 -5.8103,1.256339 -7.984225,-0.45367 z m -24.160166,-60.435719 c -0.986581,-0.49059 -2.373544,-2.07538 -3.082142,-3.52176 -1.15336,-2.35424 -1.18112,-2.87991 -0.26493,-5.01694 1.227607,-2.86343 5.104939,-6.67898 7.831536,-7.70674 3.633169,-1.36948 8.086901,1.32181 8.841195,5.34254 0.490407,2.6141 -0.371758,4.71071 -3.188755,7.75438 -3.530442,3.81455 -6.772472,4.82152 -10.136904,3.14852 z M 55.982869,-26.183726 81.36344,-51.593489 v -3.88143 -3.88145 l -13.094634,-13.19418 c -7.202048,-7.25681 -13.96652,-13.65355 -15.032165,-14.21498 -2.469828,-1.30122 -5.145294,-1.29825 -7.605163,0.008 -1.065644,0.56608 -12.855687,11.97032 -26.200101,25.34276 -25.9101613,25.96458 -26.1376349,26.25661 -24.703568,31.714865 0.4751451,1.808465 3.6939423,5.571497 11.8935364,13.904485 C 21.085785,-1.0956251 22.523282,-0.01839911 27.102924,-0.44692711 l 3.499374,-0.327445 25.380571,-25.40975289 z m -35.241448,9.000203 C 8.5114284,-21.659584 6.6721167,-38.728249 17.637785,-45.984989 c 2.650404,-1.75395 3.656338,-1.97929 8.835821,-1.97929 5.163469,0 6.189708,0.22818 8.802285,1.9571 8.548033,5.65682 9.681834,17.673163 2.355771,24.967125 -4.829157,4.807991 -10.655616,6.138341 -16.890241,3.856531 z"
         style="fill:#ffffff;fill-opacity:1;stroke-width:0.71751416" />
    </g>
  </g>
</svg>
