<?xml version="1.0" encoding="UTF-8" standalone="no"?>
<svg
   xmlns:svg="http://www.w3.org/2000/svg"
   xmlns="http://www.w3.org/2000/svg"
   id="svg8"
   version="1.1"
   viewBox="0 0 63.488246 70.585976"
   height="70.585976mm"
   width="63.488247mm">
  <defs
     id="defs2" />
  <g
     transform="translate(10.891225,27.155846)"
     id="layer2">
    <ellipse
       ry="4.4710732"
       rx="4.4763021"
       cy="-16.88459"
       cx="21.107254"
       id="path4538"
       style="fill:#38d759;fill-opacity:1;fill-rule:evenodd;stroke:none;stroke-width:15.09769917;stroke-linecap:square;stroke-linejoin:miter;stroke-miterlimit:4;stroke-dasharray:none;stroke-opacity:1;paint-order:stroke fill markers" />
  </g>
  <g
     transform="translate(21.036089,-12.298851)"
     id="layer1">
    <path
       id="path4535"
       d="m -19.245122,82.362095 c -1.594776,-0.88391 -1.776865,-1.73188 -1.790218,-8.33683 -0.01043,-5.158087 0.08351,-6.327937 0.566557,-7.055558 0.871963,-1.313452 6.10941,-6.628624 7.675955,-7.789866 l 1.375847,-1.019881 H 3.7348112 18.886602 l 1.199445,1.199445 c 1.627512,1.627512 1.627512,3.029154 0,4.656666 l -1.199445,1.199445 H 4.995967 -8.8946663 l -2.5488097,2.565936 -2.54881,2.565933 v 2.72573 2.72573 h 24.694444 24.694444 v -2.74349 -2.74348 l -2.508663,-2.459988 c -1.379763,-1.352991 -2.967263,-3.079114 -3.527778,-3.83583 L 28.341046,62.64021 V 52.360315 c 0,-11.098623 -0.186672,-12.641257 -1.976924,-16.337073 -1.024537,-2.11507 -3.842455,-5.347239 -5.619326,-6.445405 l -1.204415,-0.74437 -1.091851,1.24355 C 15.619474,33.299133 10.097518,34.291505 6.0519826,32.304848 4.9495909,31.763494 3.556305,30.76097 2.9557865,30.077017 l -1.0918517,-1.24355 -1.20441508,0.74437 c -0.66242845,0.409403 -1.99592102,1.610403 -2.96331732,2.668888 -3.1687187,3.467083 -4.6329327,7.621884 -4.6329327,13.146243 0,3.296843 -0.00569,3.318235 -1.1994444,4.511993 -1.627511,1.627512 -3.0291553,1.627512 -4.6566663,0 -1.198213,-1.198214 -1.199445,-1.202937 -1.199445,-4.600984 0,-4.731461 0.771271,-8.211319 2.6917,-12.144544 1.961287,-4.016907 5.5641108,-8.00427 9.101659,-10.073106 2.03390031,-1.189469 2.36171587,-1.530583 2.69808171,-2.807532 1.20083009,-4.558724 5.57513759,-7.979944 10.20300329,-7.979944 4.627866,0 9.002172,3.42122 10.203003,7.979944 0.336367,1.276949 0.664182,1.618063 2.698083,2.807532 3.537547,2.068836 7.140371,6.056199 9.101656,10.073106 2.368607,4.851131 2.691702,6.993905 2.691702,17.851366 v 9.108362 l 2.508662,2.459983 c 1.379764,1.352991 2.967264,3.079115 3.527778,3.83583 l 1.019115,1.375848 v 6.138203 c 0,6.69609 -0.235031,7.73145 -1.930421,8.50392 -1.418604,0.64636 -58.595146,0.57859 -59.766858,-0.0709 z M 12.414883,25.907252 c 2.380954,-1.231238 2.309541,-5.026526 -0.115368,-6.131388 -3.2038364,-1.459765 -6.3190934,1.789 -4.6328298,4.831378 0.9252162,1.669289 2.9578898,2.225815 4.7481978,1.30001 z"
       style="fill:#ffffff;fill-opacity:1;stroke-width:0.35277778" />
  </g>
</svg>
