<svg xmlns="http://www.w3.org/2000/svg" viewBox="0 0 180 200.1">
  <defs>
    <style>
      .a {
        fill: #38d759;
      }

      .b {
        fill: #fff;
      }
    </style>
  </defs>
  <title>notification</title>
  <ellipse class="a" cx="90.7" cy="29.1" rx="12.7" ry="12.7"/>
  <path class="b" d="M5.1,198.6C.6,196.1,0,193.7,0,175c0-14.6.2-18,1.6-20,2.5-3.8,17.3-18.8,21.8-22.1l3.9-2.9h85.9l3.4,3.4c4.6,4.6,4.6,8.6,0,13.2l-3.4,3.4H34.4l-7.2,7.3L20,164.5V180H160V164.4l-7.1-6.9a114,114,0,0,1-10-10.9l-2.9-3.9V113.6c0-31.5-.6-35.9-5.6-46.3-2.9-6-10.9-15.2-16-18.3L115,46.9l-3.1,3.5c-8,9.1-23.6,11.9-35.1,6.3A34.3,34.3,0,0,1,68,50.4l-3.1-3.5L61.5,49a47.2,47.2,0,0,0-8.4,7.5C44.1,66.4,40,78.2,40,93.8c0,9.4,0,9.4-3.4,12.8s-8.6,4.6-13.2,0-3.4-3.4-3.4-13c0-13.5,2.2-23.3,7.6-34.5S43.4,36.4,53.4,30.6c5.8-3.4,6.7-4.4,7.6-8C64.4,9.7,76.8,0,90,0s25.5,9.7,28.9,22.6c.9,3.6,1.9,4.6,7.6,8,10.1,5.8,20.3,17.1,25.8,28.5,6.8,13.8,7.7,19.9,7.7,50.6v25.9l7.1,6.9c3.9,3.9,8.4,8.8,10,10.9l2.9,3.9v17.4c0,19-.7,21.9-5.5,24.1S8.4,200.4,5.1,198.6Zm89.7-160c6.8-3.5,6.6-14.3-.3-17.4-9.1-4.1-17.9,5.1-13.1,13.7C84,39.6,89.7,41.2,94.8,38.6Z"/>
</svg>
