<?xml version="1.0" encoding="UTF-8" standalone="no"?>
<!-- Created with Inkscape (http://www.inkscape.org/) -->

<svg
   xmlns:dc="http://purl.org/dc/elements/1.1/"
   xmlns:cc="http://creativecommons.org/ns#"
   xmlns:rdf="http://www.w3.org/1999/02/22-rdf-syntax-ns#"
   xmlns:svg="http://www.w3.org/2000/svg"
   xmlns="http://www.w3.org/2000/svg"
   xmlns:sodipodi="http://sodipodi.sourceforge.net/DTD/sodipodi-0.dtd"
   xmlns:inkscape="http://www.inkscape.org/namespaces/inkscape"
   width="210mm"
   height="297mm"
   viewBox="0 0 210 297"
   version="1.1"
   id="svg8"
   inkscape:version="0.92.1 r15371"
   sodipodi:docname="opskins.svg">
  <defs
     id="defs2" />
  <sodipodi:namedview
     id="base"
     pagecolor="#ffffff"
     bordercolor="#666666"
     borderopacity="1.0"
     inkscape:pageopacity="0.0"
     inkscape:pageshadow="2"
     inkscape:zoom="0.35"
     inkscape:cx="400"
     inkscape:cy="560"
     inkscape:document-units="mm"
     inkscape:current-layer="layer1"
     showgrid="false"
     inkscape:window-width="1280"
     inkscape:window-height="744"
     inkscape:window-x="-4"
     inkscape:window-y="-4"
     inkscape:window-maximized="1" />
  <metadata
     id="metadata5">
    <rdf:RDF>
      <cc:Work
         rdf:about="">
        <dc:format>image/svg+xml</dc:format>
        <dc:type
           rdf:resource="http://purl.org/dc/dcmitype/StillImage" />
        <dc:title></dc:title>
      </cc:Work>
    </rdf:RDF>
  </metadata>
  <g
     inkscape:label="Layer 1"
     inkscape:groupmode="layer"
     id="layer1">
    <path
       style="fill:#ffffff;stroke-width:0.34059498"
       d="M 18.922849,116.48577 C 11.923924,112.72796 5.9873322,107.71278 3.9358838,103.82491 l -1.1034535,-2.09124 0.013283,-14.768208 0.013283,-14.76821 1.5348408,-1.12937 c 2.2985256,-1.69131 6.1066799,-3.64923 9.1673349,-4.71329 2.517567,-0.87525 3.126199,-0.94811 8.003983,-0.95826 4.603425,-0.01 5.606222,0.0912 7.833685,0.78745 2.928272,0.91527 7.596693,3.25804 9.962404,4.99948 l 1.617827,1.19091 -0.0034,14.55712 -0.0034,14.557128 -0.813985,1.70297 c -1.562847,3.26971 -5.045704,6.74021 -10.248698,10.21234 -2.500302,1.66854 -7.60037,4.5952 -8.003982,4.59307 -0.09366,-3.4e-4 -1.43597,-0.68046 -2.982902,-1.51103 z m 6.232847,-3.28599 c 6.653668,-3.79921 11.186829,-7.78651 12.961386,-11.40067 l 0.988717,-2.013668 0.100254,-12.79751 0.100258,-12.79751 -1.996796,-1.40068 c -6.653312,-4.66703 -14.171544,-6.35335 -21.023581,-4.71555 -2.841164,0.67911 -7.8742158,3.05941 -10.1442158,4.79754 l -1.6293399,1.24758 0.096662,13.00336 c 0.0965,12.981498 0.098054,13.006228 0.924018,14.706338 1.0630273,2.18807 5.2304317,6.36072 8.6326897,8.64357 2.453456,1.64622 7.329341,4.45352 7.754296,4.46455 0.101525,0.003 1.557568,-0.77917 3.235652,-1.73735 z m -5.123217,-3.29739 c -3.402929,-1.87843 -5.838798,-3.66724 -8.192569,-6.01631 -3.8409634,-3.8333 -3.7118022,-3.29039 -3.826719,-16.084878 l -0.098462,-10.96245 2.135572,-1.45024 c 7.790998,-5.29077 16.012388,-5.24251 24.045648,0.14114 l 2.142644,1.43593 -0.09907,10.89904 c -0.09712,10.6841 -0.114811,10.92854 -0.897016,12.394948 -1.057149,1.98184 -3.490584,4.54765 -6.038546,6.36703 -2.457783,1.755 -6.634311,4.23072 -7.122503,4.22201 -0.1903,-0.003 -1.112339,-0.42919 -2.048975,-0.94622 z m 2.895057,-10.927998 c 0,-1.28432 0.04403,-1.33303 1.546953,-1.71147 0.884042,-0.22261 2.088163,-0.88551 2.809909,-1.54694 1.164095,-1.06682 1.262956,-1.30435 1.262956,-3.03449 0,-1.60844 -0.141769,-2.02506 -0.990582,-2.91103 -0.54482,-0.56867 -1.809279,-1.37327 -2.809909,-1.78801 l -1.819327,-0.75407 v -2.02574 -2.02574 l 1.277231,0.20836 c 0.702478,0.11461 1.670565,0.30054 2.151304,0.41319 0.779899,0.18275 0.935463,0.0485 1.443867,-1.24573 0.313386,-0.79781 0.526716,-1.49364 0.474065,-1.54629 -0.18994,-0.18994 -4.141544,-1.14579 -4.736835,-1.14579 -0.45324,0 -0.609632,-0.26793 -0.609632,-1.04441 0,-0.93842 -0.09505,-1.03347 -0.936636,-0.93664 -0.733638,0.0844 -0.959843,0.30921 -1.043711,1.03719 -0.08898,0.77236 -0.347974,0.99349 -1.532678,1.30863 -5.477091,1.45692 -5.468246,7.29609 0.01422,9.38987 l 1.455232,0.55575 v 2.1676 c 0,1.50917 -0.129323,2.16636 -0.425744,2.16355 -0.369861,-0.004 -2.957543,-0.68223 -4.76833,-1.25067 -0.509252,-0.15987 -0.596041,0.0444 -0.596041,1.40267 0,1.50439 0.06609,1.61739 1.230415,2.10388 0.676728,0.28275 1.979504,0.60281 2.895057,0.71125 l 1.664643,0.19715 v 1.31494 c 0,1.233978 0.06291,1.314938 1.021785,1.314938 0.959811,0 1.021785,-0.0802 1.021785,-1.321948 z m 0,-6.17844 c 0,-1.82034 0.249864,-2.05563 1.139295,-1.07282 0.824016,0.91053 0.700748,1.93011 -0.287807,2.38053 -0.846184,0.38554 -0.851488,0.3774 -0.851488,-1.30771 z m -2.980206,-6.98491 c -0.960629,-0.67629 -0.986983,-1.72121 -0.05598,-2.21947 0.934761,-0.50027 1.055605,-0.32438 0.928781,1.35184 -0.104909,1.38657 -0.117662,1.39925 -0.872803,0.86763 z m 35.319893,15.403978 c -5.849501,-1.653828 -8.966848,-7.854928 -7.867104,-15.649418 0.501318,-3.5531 1.653691,-5.9273 3.824095,-7.87868 2.316254,-2.08252 4.339477,-2.71342 8.121696,-2.53259 2.520222,0.1205 3.242444,0.29752 4.815873,1.18045 2.147813,1.20523 3.986113,3.43958 4.93559,5.99892 0.530119,1.42895 0.661977,2.66633 0.661977,6.21211 0,4.14112 -0.06233,4.56261 -0.962886,6.5113 -1.162366,2.51522 -3.208235,4.60207 -5.508419,5.618768 -2.063383,0.91203 -5.810977,1.16393 -8.020822,0.53914 z m 5.783583,-5.314028 c 1.58892,-1.11649 2.216456,-2.94331 2.352564,-6.84855 0.14978,-4.29753 -0.267186,-6.08527 -1.812626,-7.77164 -1.055817,-1.15209 -1.293484,-1.24986 -3.038308,-1.24986 -1.650279,0 -2.023169,0.13096 -2.909319,1.02178 -2.89598,2.91126 -2.603539,13.25011 0.42057,14.86856 1.924018,1.02971 3.501954,1.02328 4.987119,-0.0203 z m 42.511214,5.409498 c -4.349805,-1.09848 -7.396087,-4.283098 -7.404656,-7.740898 -0.0018,-0.7375 0.112266,-0.76634 3.031135,-0.76634 h 3.033031 l 0.45807,1.44753 c 0.54628,1.7263 2.03769,2.63826 4.31596,2.63908 1.18647,4.4e-4 1.67456,-0.20031 2.50408,-1.02983 1.88745,-1.88745 0.69272,-3.67747 -3.40285,-5.09837 -5.10854,-1.77235 -7.453015,-3.37651 -8.587482,-5.87583 -0.826154,-1.82008 -0.834853,-3.44306 -0.02796,-5.21958 1.367411,-3.01066 4.624162,-4.57412 9.527132,-4.57367 2.53685,2.3e-4 3.22758,0.1358 5.02544,0.98634 2.19285,1.03739 3.49852,2.42416 4.16962,4.42858 0.80682,2.40976 0.75327,2.45547 -2.7483,2.34613 -2.99749,-0.0936 -3.14446,-0.13417 -3.32891,-0.91872 -0.68069,-2.89525 -6.41397,-2.79041 -6.75926,0.1236 -0.16708,1.41008 1.00975,2.39982 4.24568,3.57072 7.06891,2.55783 9.28114,4.88147 8.90986,9.35857 -0.33801,4.07602 -3.33564,6.324218 -8.70822,6.531088 -1.63556,0.063 -3.54912,-0.0308 -4.25236,-0.2084 z m 82.65029,-0.0166 c -3.6408,-0.87528 -6.65532,-3.843158 -7.15382,-7.043128 l -0.2255,-1.44753 h 3.27918 c 3.07861,0 3.27919,0.0427 3.27919,0.6981 0,1.22872 0.96339,2.62085 2.08404,3.01152 3.53575,1.23256 6.78914,-0.7958 5.36589,-3.34543 -0.56283,-1.00826 -1.73118,-1.65045 -5.6739,-3.11869 -3.10769,-1.15727 -5.27613,-2.62777 -6.45533,-4.37758 -0.60959,-0.90458 -0.77022,-1.61898 -0.77022,-3.42563 0,-1.99422 0.12872,-2.46039 1.01859,-3.68882 1.61991,-2.23623 3.90945,-3.22199 7.88915,-3.39668 3.84358,-0.16871 5.87771,0.35503 7.92134,2.03957 1.42065,1.17102 2.56544,3.2985 2.57735,4.78975 l 0.007,0.93663 h -2.99068 c -2.98581,0 -2.99129,-0.002 -3.36271,-0.98559 -1.1576,-3.06684 -6.75952,-2.79534 -6.75952,0.32759 0,1.45763 1.03013,2.18492 5.21488,3.68184 3.4255,1.22533 5.30379,2.43035 6.756,4.33431 0.88501,1.1603 0.97174,1.52191 0.97174,4.05179 0,2.53884 -0.0848,2.8889 -0.98536,4.06965 -1.47946,1.939668 -4.03206,2.977218 -7.65906,3.113158 -1.6147,0.0605 -3.56263,-0.0406 -4.32873,-0.22483 z M 73.335597,88.350852 v -12.96727 l 7.067347,0.10981 c 7.859165,0.12211 8.5598,0.29722 10.881779,2.71958 3.433637,3.58207 2.928984,9.77395 -1.01325,12.43215 -1.950247,1.31503 -4.141846,1.81753 -7.926872,1.81753 h -2.878293 v 4.42774 4.427728 h -3.065355 -3.065356 z m 12.849846,-1.7712 c 0.783073,-0.78318 0.944252,-1.23851 0.944252,-2.66755 0,-1.51586 -0.133823,-1.84274 -1.112308,-2.71702 -1.032126,-0.92221 -1.308331,-0.99385 -3.831694,-0.99385 h -2.719385 v 3.7815 3.78149 l 2.887441,-0.12009 c 2.621618,-0.10905 2.974372,-0.20705 3.831694,-1.06448 z m 33.471077,1.79586 v -12.94261 h 3.23565 3.23566 v 5.51436 5.51436 l 3.7648,-5.51436 3.7648,-5.51436 h 3.94029 c 3.10091,0 3.8701,0.0907 3.61078,0.42575 -3.82964,4.94812 -8.26877,10.82612 -8.26877,10.94896 0,0.0881 1.91584,3.31349 4.25743,7.16754 2.34159,3.85406 4.25744,7.082878 4.25744,7.175168 0,0.0923 -1.65528,0.1678 -3.67839,0.1678 h -3.6784 l -2.70732,-4.754738 -2.70732,-4.75474 -1.27767,1.24762 -1.27767,1.24761 v 3.50713 3.507118 h -3.23566 -3.23565 z m 23.84165,0 v -12.94261 h 3.23565 3.23566 v 12.94261 12.942608 h -3.23566 -3.23565 z m 10.55845,-0.0123 v -12.95494 l 3.28485,0.0975 3.28485,0.0975 4.29339,7.56719 c 2.36136,4.16195 4.40834,7.57216 4.54883,7.57824 0.1405,0.006 0.25545,-3.43748 0.25545,-7.65234 v -7.66339 h 3.06535 3.06536 v 12.94261 12.942608 l -3.15051,-0.0101 -3.1505,-0.0101 -4.42774,-7.812008 -4.42773,-7.81201 -0.0914,7.82212 -0.0914,7.822128 h -3.22938 -3.22937 V 88.363182 Z m 46.37543,-14.13942 c -0.03,-0.57135 -0.23843,-1.22273 -0.46323,-1.44753 -0.31788,-0.31789 -0.18543,-0.40755 0.59604,-0.4035 0.57014,0.003 0.83259,0.11475 0.60672,0.25843 -0.21891,0.13926 -0.46261,0.7883 -0.54153,1.44231 -0.13827,1.14579 -0.14548,1.15127 -0.198,0.15029 z m 1.35265,-0.49386 c -0.0214,-1.4188 0.014,-1.48356 0.47694,-0.87154 0.27503,0.36363 0.50006,0.79416 0.50006,0.95674 0,0.16258 0.15327,0.20087 0.3406,0.0851 0.18732,-0.11578 0.34059,0.0194 0.34059,0.30039 0,0.8587 -0.61639,0.94924 -0.88706,0.1303 l -0.2549,-0.77129 -0.24656,0.85149 c -0.19484,0.67291 -0.2514,0.53004 -0.26967,-0.68119 z m 1.86681,0.27673 c -0.11942,-0.5971 -0.0619,-1.24083 0.12772,-1.4305 0.23274,-0.23274 0.34485,0.12021 0.34485,1.08565 0,1.70559 -0.1749,1.83323 -0.47257,0.34485 z"
       id="path151"
       inkscape:connector-curvature="0" />
  </g>
</svg>
