<svg xmlns="http://www.w3.org/2000/svg" viewBox="0 0 1041.3 947.3">
  <title>partnership</title>
  <path d="M583.7,946.3c-24.1-3.7-39.2-11.9-62.6-34.1l-17.7-16.7-11,3.8c-12.6,4.4-37.7,5.2-51.4,1.5-32.8-8.7-58.9-37.1-65.4-71.1l-2.2-11.9-12.2-2.2c-17.1-3-32.8-11.4-46.5-24.9-12.1-11.9-22.8-31-25-44.4s-3.9-15.6-13.8-16.7c-14.8-1.7-34.7-12.3-47.8-25.4s-21.8-29-25.1-46.7l-2.2-12.3L188.5,643c-37.4-7-67.3-38.6-72.7-76.9-3.8-26.2,3.8-51.3,21.9-72.8l6.6-8-3.8-6.2c-6.8-11.2-15.8-40.3-20.4-66.3-7.8-44-2.1-35.3-63.1-96.6C10.6,269.5,2.2,260.1,1,253.8c-3.2-17-6.3-13.3,115.6-135.5C241.5-6.8,237.4-3.3,255.2,1.9c6.6,2,16.8,11,51.9,45.8,44.8,44.3,54.2,51.5,72.2,54.9,4.5.8,24.8,1.4,45.2,1.2,53-.5,87.1,6,114.4,21.7l9,5.2,25.5-3.3c14.1-1.9,37.5-4.3,52-5.5,31-2.5,48.1-5.3,58-9.4,4.3-1.8,24.5-20.2,50.8-46.4,36.2-36,45.2-43.9,52-45.7,18-4.7,14.1-8,137.8,115.4,121.1,120.9,119.5,119.1,116.5,135.9-1.3,6.8-8.7,15.1-58,64.8-31.1,31.3-57.1,58.7-57.8,60.8s-3.2,15.3-5.5,29.5c-5.4,33.6-8.9,46.6-17.6,65.7l-7.2,15.8L911,525.8c23.8,25.2,32.7,44.4,32.7,71,0,43.3-31,81.1-73.1,89.1-13.2,2.6-12.7,1.9-15.2,17.7-2.1,13-12.6,31.7-24.4,43.5-14.7,14.7-31,23-52.1,26.5-6.9,1.2-7.2,1.6-9.5,13.6-6.7,35.4-36.1,64.8-71.2,71.4l-12.4,2.3-2.2,11.3c-7.5,38-37.7,67.3-75.5,73.3-13.4,2.2-15.3,2.2-24.4.8ZM607,882.6c10.1-5.1,15.5-12.1,16.8-22.3,1.7-12.4-2.4-20.4-18.4-36.4l-15-14.9-4.7,7.8c-2.7,4.3-11.5,14.7-19.6,23.2l-14.8,15.3L565,868.9c18.9,18.7,26.7,21.3,42,13.7ZM480,838.8c2.8-1.5,16.2-13.9,29.8-27.7,20.2-20.6,25.1-26.7,27.1-34.1,6-22.3-15-42.8-37.5-36.5-6,1.6-14,8.1-32.1,25.8-28.1,27.5-32.4,33.6-32.4,45.9,0,24.3,23.2,38,45.1,26.6Zm215.9-43.1c12.5-7.4,18.3-26.9,11.8-39.5-1.3-2.6-37.4-40-80.3-83.1C545,590.2,545,590.3,548,574.5c3.5-18.6,26.6-29.5,43.5-20.5,3,1.6,38.9,36.4,79.7,77.4s77.6,76.3,81.8,78.5,10.4,3.9,13.9,3.9c14.6,0,30.4-15.8,30.4-30.4,0-3.5-1.8-9.8-3.9-13.9s-38-41.4-79.5-82.8-76.8-77.8-78.4-80.8-3-9.2-3-13.8c0-19.9,16.3-33.2,36.3-29.6,6.5,1.2,18.3,12.2,86.8,80.4,43.6,43.4,81.5,80,84.1,81.3,7.5,3.9,21.8,3,29.4-1.7,15.5-9.5,18.2-31.1,5.9-46.3-3.4-4.3-64.2-65.6-135-136.2C602.6,303,604.8,304.9,588.2,308c-6.3,1.2-15.3,9.1-57.3,50.8-27.5,27.1-54.5,52.3-60.1,55.8-36.6,23.3-84,17.6-114.5-13.6-27.2-27.9-33.1-68.1-15.4-104.1,6.6-13.3,12.7-20.4,47.4-55.7,21.9-22.3,48.1-47.9,58.1-56.9s18.6-17,19-17.8-21.7-1.9-48.8-2.4c-40.3-.7-51.7-1.6-61.3-4.6l-11.9-3.7L253,246.2l-90.4,90.5,4.3,9.8c2.4,5.4,7,24.1,10.3,41.6s7.3,36.7,9,42.6l3.2,10.9,6.5-5c9.9-7.5,25-13.5,40-15.8,47-7.3,93.3,25.6,102.1,72.5l2.2,12.2,12.3,2.3c36,6.9,67.3,38.5,72.3,73.1,1.2,9,1.9,9.8,8.4,11.4,26.2,6.3,42.9,15.5,56.5,30.9a91.5,91.5,0,0,1,21.2,43.2l2.3,12.3,9.9,1.2c5.4.6,15.6,3.7,22.6,6.7,11,4.9,19,11.8,63.5,55.7,27.9,27.6,53.1,51.7,55.8,53.6,6.7,4.4,23.2,4.3,30.9-.2Zm-306-41.3c6.6-2.5,54.4-49.1,58.7-57.3s3.7-22.2-1.7-30.3c-9.7-14.5-27.2-17.9-42.3-8.2s-51.7,48.9-54.7,58c-8.2,24.9,15.2,47,40,37.8Zm-88.8-85.3c5.2-1.5,14.7-9.6,34.9-30,29.2-29.5,32.6-35.2,29.2-48.7s-15.3-23.1-31.9-23.1H322.7l-29.5,29.3-29.5,29.3-.8,11.9c-.9,15,3.9,23.6,16.3,29.3C289.1,671.6,291.3,671.8,301.1,669.1Zm-82.8-87.7c6.3-3.3,54-50.6,57.4-57.2,1.6-3,2.9-9.2,2.9-13.8,0-20-16.3-33.2-36.2-29.5-6,1.1-12.7,6.5-34.7,28.2-33.6,33.1-37.9,41.6-29,58.3,7.4,13.9,26.4,20.6,39.6,14ZM852.8,449.9c1.7-6.4,5.1-24,7.6-39l4.3-27.3L762.8,281.7,660.9,179.8,632,182.2c-61.7,5.3-82.5,9.7-111.3,23.5-16.6,7.9-19.4,10.4-72.6,63.4-48.2,48.1-55.5,56.2-56.7,62.9-1.8,10.2,3.6,24.5,11.6,30.1s19.1,7.1,27.5,5c3.7-.9,23.8-19.3,56.6-51.7,52.4-51.8,62.3-59.6,83.1-65.3s52.3-1.8,71.7,10.4c5.5,3.4,53.9,50.1,107.6,103.6s98.2,97.5,98.9,97.5,2.7-5.3,4.4-11.7Zm79.9-150.5c18.4-17.6,33.4-32.9,33.4-34.1S796.9,93.4,794.3,93.4c-1.1,0-16.9,14.9-35.1,33.1l-33.1,33,85.9,86c47.3,47.2,86.3,85.9,86.6,85.9s15.7-14.4,34.1-32ZM271.5,97.5c-12.2-12.3-23.2-22.4-24.4-22.4S75.3,244.1,75.3,246.3s10.3,11.5,22.8,23.9L121,292.6l86.4-86.3,86.5-86.4Z"/>
</svg>
