<svg xmlns="http://www.w3.org/2000/svg" viewBox="0 0 200 160">
  <title>partnership_new</title>
  <path d="M3.4,156.6,0,153.2V27.3l2.9-3.9C6.2,19,21.2,4.1,25,1.6,27.2.2,34.4,0,100,0s72.8.2,75,1.6c3.8,2.5,18.8,17.4,22.1,21.8l2.9,3.9V153.2l-3.4,3.4-3.4,3.4h-28c-26.9,0-28-.1-30.6-2.1s-6.2-9.1-11.7-20L114,120H86l-2,4c-2.8,5.4-7.1,7.6-12.1,6.1-7.7-2.3-8.8-8.4-3.4-19S73.4,100,100,100c21.6,0,22.9.1,25.4,2.1s6.2,9.1,11.7,20L146,140h34V34.4l-7.3-7.2L165.5,20H34.4l-7.2,7.3L20,34.5V140H63.2l3.4,3.4c4.6,4.6,4.6,8.6,0,13.2L63.2,160H6.8Zm50-70c-3.2-3.2-3.4-3.8-3.4-10V70H43.4c-6.2,0-6.8-.2-10-3.4s-4.6-8.6,0-13.2,3.8-3.4,10-3.4H50V43.4c0-6.2.2-6.8,3.4-10S57.7,30,60,30s4.1,1,6.6,3.4,3.4,3.8,3.4,10V50h6.6c6.2,0,6.8.2,10,3.4s4.6,8.6,0,13.2S82.8,70,76.6,70H70v6.6c0,6.2-.2,6.8-3.4,10S62.3,90,60,90s-4.1-.9-6.6-3.4Zm80,0c-4.6-4.6-4.6-8.6,0-13.2,2.4-2.4,4.3-3.4,6.6-3.4,4.4,0,10,5.6,10,10s-5.6,10-10,10C137.7,90,135.8,89.1,133.4,86.6Zm-20-20c-4.6-4.6-4.6-8.6,0-13.2,2.4-2.4,4.3-3.4,6.6-3.4,4.4,0,10,5.6,10,10s-5.6,10-10,10C117.7,70,115.8,69.1,113.4,66.6Zm40,0c-4.6-4.6-4.6-8.6,0-13.2,2.4-2.4,4.3-3.4,6.6-3.4,4.4,0,10,5.6,10,10s-5.6,10-10,10C157.7,70,155.8,69.1,153.4,66.6Zm-20-20c-4.6-4.6-4.6-8.6,0-13.2,2.4-2.4,4.3-3.4,6.6-3.4,4.4,0,10,5.6,10,10s-5.6,10-10,10C137.7,50,135.8,49.1,133.4,46.6Z"/>
</svg>
