<?xml version="1.0" encoding="UTF-8" standalone="no"?>
<!-- Created with Inkscape (http://www.inkscape.org/) -->

<svg
   xmlns:dc="http://purl.org/dc/elements/1.1/"
   xmlns:cc="http://creativecommons.org/ns#"
   xmlns:rdf="http://www.w3.org/1999/02/22-rdf-syntax-ns#"
   xmlns:svg="http://www.w3.org/2000/svg"
   xmlns="http://www.w3.org/2000/svg"
   xmlns:sodipodi="http://sodipodi.sourceforge.net/DTD/sodipodi-0.dtd"
   xmlns:inkscape="http://www.inkscape.org/namespaces/inkscape"
   width="210mm"
   height="297mm"
   viewBox="0 0 210 297"
   version="1.1"
   id="svg8"
   inkscape:version="0.92.1 r15371"
   sodipodi:docname="photo_camera.svg">
  <defs
     id="defs2" />
  <sodipodi:namedview
     id="base"
     pagecolor="#ffffff"
     bordercolor="#666666"
     borderopacity="1.0"
     inkscape:pageopacity="0.0"
     inkscape:pageshadow="2"
     inkscape:zoom="0.35"
     inkscape:cx="400"
     inkscape:cy="560"
     inkscape:document-units="mm"
     inkscape:current-layer="layer1"
     showgrid="false"
     inkscape:window-width="1280"
     inkscape:window-height="744"
     inkscape:window-x="-4"
     inkscape:window-y="-4"
     inkscape:window-maximized="1" />
  <metadata
     id="metadata5">
    <rdf:RDF>
      <cc:Work
         rdf:about="">
        <dc:format>image/svg+xml</dc:format>
        <dc:type
           rdf:resource="http://purl.org/dc/dcmitype/StillImage" />
        <dc:title></dc:title>
      </cc:Work>
    </rdf:RDF>
  </metadata>
  <g
     inkscape:label="Layer 1"
     inkscape:groupmode="layer"
     id="layer1">
    <path
       style="fill:#000000;stroke-width:0.35008731"
       d="m 30.914642,211.09469 c -4.840329,-0.91637 -10.173868,-4.92714 -12.389916,-9.31711 -2.251014,-4.45923 -2.164451,-2.36991 -2.05921,-49.70215 l 0.09555,-42.97159 0.781017,-2.04839 c 2.001824,-5.25024 5.979974,-9.226807 11.150212,-11.145779 1.963561,-0.728788 2.788465,-0.779372 15.725669,-0.96427 14.771,-0.211114 14.486533,-0.173332 16.686997,-2.216207 1.404424,-1.303841 2.03664,-2.800737 5.182745,-12.271175 2.490521,-7.496989 3.051004,-8.854729 4.080124,-9.883847 2.627314,-2.627315 -0.274192,-2.430548 35.84055,-2.430548 h 32.38307 l 1.67076,0.982092 c 0.91891,0.54015 2.04259,1.564156 2.49706,2.275567 0.45447,0.711412 2.19993,5.421245 3.87879,10.466294 2.63242,7.910503 3.21844,9.343698 4.25843,10.414545 2.45094,2.52365 1.95762,2.446827 17.1023,2.663279 12.89077,0.184236 13.76782,0.237639 15.7018,0.95606 5.1892,1.927651 9.17374,5.899429 11.16587,11.130119 l 0.78923,2.07226 0.0955,42.97159 c 0.10524,47.33224 0.19181,45.24292 -2.05921,49.70215 -1.42969,2.83222 -4.77552,6.16831 -7.63291,7.61072 -4.41132,2.22683 0.21454,2.10712 -80.02578,2.07085 -44.410328,-0.0201 -73.856236,-0.16332 -74.918684,-0.36446 z m 83.294908,-18.37181 c 18.85647,-3.55859 33.20153,-18.49245 36.10078,-37.58255 3.60055,-23.70788 -12.89068,-46.50017 -36.5742,-50.54865 -4.1579,-0.71076 -11.22793,-0.72718 -15.296298,-0.0355 -9.052044,1.5389 -17.306756,5.81929 -23.960898,12.42467 -12.238811,12.14912 -16.362507,29.75726 -10.833679,46.25971 6.18689,18.46663 24.662818,31.10726 44.113555,30.18106 2.02176,-0.0963 4.92459,-0.41068 6.45074,-0.6987 z m -13.97761,-17.77381 c -7.889971,-1.81863 -14.319105,-6.78242 -18.044765,-13.93193 -2.087827,-4.00651 -2.878278,-7.33784 -2.889667,-12.17839 -0.0118,-5.01547 0.632563,-7.82884 2.806384,-12.25305 1.395137,-2.83941 2.123473,-3.81446 4.979867,-6.66675 3.686682,-3.68138 6.715049,-5.52403 11.57278,-7.04161 2.209091,-0.69013 3.375481,-0.82027 7.351841,-0.82027 3.97635,0 5.14274,0.13014 7.35183,0.82027 4.85773,1.51758 7.8861,3.36023 11.57278,7.04161 2.85639,2.85229 3.58473,3.82734 4.97987,6.66675 2.13829,4.3519 2.81227,7.24648 2.81227,12.07801 0,4.77058 -0.67194,7.70524 -2.72539,11.90297 -3.23585,6.61484 -8.56534,11.24022 -15.76431,13.68159 -2.35615,0.79904 -3.5231,0.96847 -7.35184,1.06739 -3.02606,0.0782 -5.25501,-0.0447 -6.65165,-0.36659 z m 73.93279,-50.24655 c 4.60105,-2.08894 4.61533,-8.95718 0.0232,-11.18017 -1.8175,-0.87984 -3.31352,-0.94001 -5.07479,-0.20411 -1.73603,0.72536 -2.51676,1.47178 -3.28163,3.13744 -2.47216,5.38361 2.90933,10.70935 8.33318,8.24684 z"
       id="path47"
       inkscape:connector-curvature="0" />
  </g>
</svg>
