<svg xmlns="http://www.w3.org/2000/svg" viewBox="0 0 179.3 179.5">
  <title>profile</title>
  <path d="M3.4,176.1c-1.9-1.9-3.4-4.1-3.4-5s9.8-69,10.6-72a10.3,10.3,0,0,1,2.7-4.4c2.7-2.5,34-15.2,37.4-15.2s9.3,6,9.3,9.8c0,5.5-3.8,8.5-18,14.2-7.1,2.9-13,5.3-13,5.4l-3.5,23.9c-1.9,13-3.5,24.3-3.5,25.2s7.8,1.5,68,1.5c64.5,0,68-.1,68-1.8,0-4.1-6.9-47.5-7.7-48.1s-3.9-1.7-7.8-2.8l-17.4-5.4-10.5-3.2L105.1,89l-9.6-9.2-7.8-.6c-15-1.1-26.8-9-33.5-22.5-3.5-7.2-3.7-8.1-3.7-17.1s.3-10.2,3.2-16.3C58.1,14,63.7,8.2,72.8,3.7,80,.2,80.9,0,90,0s10,.2,17.2,3.7c9.1,4.5,14.7,10.3,19.1,19.6,2.9,6.1,3.2,7.6,3.2,16.2s-.3,10.1-3.1,16.1a54.5,54.5,0,0,1-7,10.8l-3.7,4.2,5.4,5.3c5.4,5.3,5.5,5.4,24.4,11.1,11.4,3.4,19.9,6.5,21.2,7.7s3,4,8.9,44.1c5.1,34.8,5.1,35.7-.5,39-2.7,1.6-9.7,1.7-85.6,1.7H6.8ZM101,56.1c5.9-3.9,8.5-8.9,8.5-16.6s-2.6-12.7-8.8-16.8-15.3-3.9-21-.3a20.7,20.7,0,0,0-8.8,22.9c1.4,5.1,7.5,11.7,12.3,13.1s13.5.6,17.8-2.3Z"/>
</svg>
