<svg xmlns="http://www.w3.org/2000/svg" viewBox="0 0 199.8 199.8">
  <title>referral</title>
  <path d="M93.3,197c-2.2-1.6-9.7-8.7-16.7-15.9-12.2-12.5-12.7-13.2-12.7-17.2a9.6,9.6,0,0,1,10-10c3.9,0,4.7.6,15.1,10.6l10.9,10.7,10.9-10.6,10.9-10.7,15.8-.2,15.9-.3.3-15.9.2-15.8,10.7-10.9,10.6-10.9L164.6,89,153.9,78.1l-.2-15.9-.3-15.8-15.9-.3-15.8-.3L110.8,35.2,99.9,24.6,89,35.2,78.1,45.8l-15.9.3-15.8.3-.3,15.8-.3,15.9L35.2,89,24.6,99.9l10.6,10.9,10.7,10.9v45.9l-2.5,2.5a9.6,9.6,0,0,1-11.3,2.2c-5.3-2.2-6.2-5.8-6.2-25.1V130.5L13.4,117.9C.9,105.1-.9,102.2.3,97.2.7,95.7,6.4,89,13.4,81.9L25.9,69.2V52.5c0-26.4.2-26.6,26.6-26.6H69.2L81.9,13.4C94.6.9,97.6-.9,102.5.3c1.5.4,8.2,6.1,15.4,13.1l12.6,12.5h16.7c26.4,0,26.7.2,26.7,26.6V69.2l12.4,12.7c7,7.1,12.8,13.8,13.1,15.3,1.3,5-.6,7.9-13.1,20.7l-12.4,12.6v16.7c0,26.5-.2,26.7-26.8,26.7H130.3L120.4,184c-16.7,16.8-19.8,18.4-27.1,13Zm25-65.5c-4.6-4.6-4.6-8.6,0-13.2,2.4-2.5,4.3-3.4,6.6-3.4s4.1.9,6.6,3.4c4.6,4.6,4.6,8.6,0,13.2-2.5,2.4-4.3,3.4-6.6,3.4S120.7,133.9,118.3,131.5Zm-45-5c-4.3-4.3-4.5-7.9-.5-13.2s38.4-39.4,42.1-41.8,7.8-2,11.6,1.8,4.4,7.6,1.7,11.6S91,123.6,86.5,127s-8.9,3.8-13.2-.5Zm-5-45c-4.6-4.6-4.6-8.6,0-13.2,2.4-2.5,4.3-3.4,6.6-3.4,4.4,0,10,5.5,10,10,0,2.3-1,4.1-3.4,6.6s-4.3,3.4-6.6,3.4-4.2-1-6.6-3.4Z"/>
</svg>
