<svg xmlns="http://www.w3.org/2000/svg" viewBox="0 0 200.6 200">
  <title>reload</title>
  <path d="M13.7,196.6l-3.4-3.4V146.8l3.4-3.4,3.4-3.4H63.5l3.4,3.4c4.4,4.4,4.5,8.3.5,12.8s-3.1,3.3-13.6,3.8l-10.6.5,6.7,4.4c22.6,14.9,52.6,19,76.6,10.6,31.3-10.9,53.7-41.7,53.8-73.8,0-4.2.5-5.4,3.4-8.3,4.7-4.7,8.6-4.6,13.3.2l3.6,3.5-.7,9.2a100.7,100.7,0,0,1-77.6,91.2c-27.1,6.4-62.7-1-86.7-18.1L30.8,176l-.5,9.1c-.5,8.7-.6,9.2-3.8,12s-8.4,3.9-12.8-.5ZM3.5,106.5,0,102.9l.7-9.2A100.5,100.5,0,0,1,78.3,2.5c27.1-6.4,62.7,1,86.7,18.1l4.8,3.4.5-9.1c.5-8.7.6-9.2,3.8-12s8.4-3.9,12.8.5l3.4,3.4V53.2l-3.4,3.4L183.5,60H137.1l-3.4-3.4c-4.4-4.4-4.5-8.3-.5-12.8s3.1-3.3,13.6-3.8l10.6-.5-6.7-4.4c-22.6-14.9-52.6-19-76.6-10.6C42.8,35.4,20.3,66.3,20.3,98.4c0,4.1-.5,5.3-3.4,8.2-4.7,4.7-8.6,4.6-13.4-.1Z"/>
</svg>
