<?xml version="1.0" encoding="UTF-8" standalone="no"?>
<!-- Created with Inkscape (http://www.inkscape.org/) -->

<svg
   xmlns:dc="http://purl.org/dc/elements/1.1/"
   xmlns:cc="http://creativecommons.org/ns#"
   xmlns:rdf="http://www.w3.org/1999/02/22-rdf-syntax-ns#"
   xmlns:svg="http://www.w3.org/2000/svg"
   xmlns="http://www.w3.org/2000/svg"
   xmlns:sodipodi="http://sodipodi.sourceforge.net/DTD/sodipodi-0.dtd"
   xmlns:inkscape="http://www.inkscape.org/namespaces/inkscape"
   width="210mm"
   height="297mm"
   viewBox="0 0 210 297"
   version="1.1"
   id="svg8"
   inkscape:version="0.92.1 r15371"
   sodipodi:docname="sales.svg">
  <defs
     id="defs2" />
  <sodipodi:namedview
     id="base"
     pagecolor="#ffffff"
     bordercolor="#666666"
     borderopacity="1.0"
     inkscape:pageopacity="0.0"
     inkscape:pageshadow="2"
     inkscape:zoom="0.35"
     inkscape:cx="400"
     inkscape:cy="560"
     inkscape:document-units="mm"
     inkscape:current-layer="layer1"
     showgrid="false"
     inkscape:window-width="1280"
     inkscape:window-height="744"
     inkscape:window-x="-4"
     inkscape:window-y="-4"
     inkscape:window-maximized="1" />
  <metadata
     id="metadata5">
    <rdf:RDF>
      <cc:Work
         rdf:about="">
        <dc:format>image/svg+xml</dc:format>
        <dc:type
           rdf:resource="http://purl.org/dc/dcmitype/StillImage" />
        <dc:title></dc:title>
      </cc:Work>
    </rdf:RDF>
  </metadata>
  <g
     inkscape:label="Layer 1"
     inkscape:groupmode="layer"
     id="layer1">
    <path
       style="fill:#000000;stroke-width:0.35277778"
       d="m 106.52882,148.32651 c -0.75672,-0.55594 -3.39991,-3.08073 -5.87377,-5.61065 -4.308498,-4.40615 -4.497914,-4.66185 -4.497914,-6.0719 0,-2.06878 1.461928,-3.53443 3.52545,-3.53443 1.382874,0 1.674374,0.20607 5.318804,3.76003 l 3.85575,3.76004 3.84638,-3.75091 3.84638,-3.7509 5.59042,-0.0973 5.59043,-0.0973 0.0973,-5.59042 0.0973,-5.59042 3.7509,-3.84639 3.7509,-3.84638 -3.7509,-3.84638 -3.7509,-3.84638 -0.0973,-5.59043 -0.0973,-5.590421 -5.59043,-0.0973 -5.59042,-0.0973 -3.84638,-3.7509 -3.84638,-3.7509 -3.84639,3.7509 -3.84638,3.7509 -5.590422,0.0973 -5.590423,0.0973 -0.09733,5.590421 -0.09733,5.59043 -3.7509,3.84638 -3.7509,3.84638 3.760032,3.85575 3.760032,3.85574 v 8.0906 8.09059 l -0.890575,0.89057 c -1.126852,1.12685 -2.491518,1.39265 -3.972726,0.77376 -1.87748,-0.78446 -2.192255,-2.05518 -2.192255,-8.84991 v -5.89334 l -4.3893,-4.47034 c -4.412238,-4.49371 -5.065531,-5.52217 -4.624354,-7.27995 0.132181,-0.52666 2.156065,-2.89302 4.624354,-5.40688 l 4.3893,-4.47034 v -5.893341 c 0,-9.31276 0.08571,-9.39846 9.398459,-9.39846 h 5.893342 l 4.470336,-4.3893 c 4.49371,-4.41224 5.52216,-5.06553 7.27995,-4.62436 0.52665,0.13218 2.89302,2.15607 5.40688,4.62436 l 4.47034,4.3893 h 5.89334 c 9.31275,0 9.39846,0.0857 9.39846,9.39846 v 5.893341 l 4.3893,4.47034 c 2.46829,2.51386 4.49217,4.88022 4.62436,5.40688 0.44117,1.75778 -0.21212,2.78624 -4.62436,7.27995 l -4.3893,4.47034 v 5.89334 c 0,9.31807 -0.0807,9.39846 -9.43209,9.39846 h -5.92698 l -3.52116,3.56569 c -5.87296,5.94726 -6.98553,6.48245 -9.55364,4.59573 z m 8.81943,-23.1192 c -1.62752,-1.62751 -1.62752,-3.02916 0,-4.65667 0.8643,-0.8643 1.51487,-1.19944 2.32833,-1.19944 0.81346,0 1.46403,0.33514 2.32833,1.19944 1.62752,1.62751 1.62752,3.02916 0,4.65667 -0.8643,0.8643 -1.51487,1.19944 -2.32833,1.19944 -0.81346,0 -1.46403,-0.33514 -2.32833,-1.19944 z m -15.875003,-1.76389 c -1.514899,-1.5149 -1.563569,-2.7905 -0.17767,-4.65665 1.195343,-1.60957 13.563263,-13.88546 14.843523,-14.73308 1.40943,-0.93314 2.75011,-0.72986 4.10192,0.62195 1.35182,1.35182 1.5551,2.6925 0.62196,4.10192 -0.84763,1.28027 -13.12351,13.64818 -14.73308,14.84353 -1.86615,1.3859 -3.14175,1.33723 -4.656653,-0.17767 z m -1.763888,-15.875 c -1.627511,-1.62751 -1.627511,-3.02915 0,-4.65667 0.864305,-0.8643 1.514869,-1.19944 2.328331,-1.19944 1.56862,0 3.52778,1.95916 3.52778,3.52778 0,0.81346 -0.33514,1.46403 -1.19944,2.32833 -0.86431,0.86431 -1.51487,1.19945 -2.32834,1.19945 -0.813462,0 -1.464026,-0.33514 -2.328331,-1.19945 z"
       id="path73"
       inkscape:connector-curvature="0" />
  </g>
</svg>
