<svg xmlns="http://www.w3.org/2000/svg" viewBox="0 0 504.5 239.2">
  <title>shoes</title>
  <path d="M301,238c-83.1-2.3-188-5.8-211.4-6.9-12-.5-31-1-42.1-1-26.3.1-33.2-1.4-39.3-8.6-4.8-5.7-6.1-10.4-7.1-25-3.1-47.2.5-90.8,9.7-117.3C19.1,55.6,36.6,33,46.7,33c5.2,0,8.5,4,13.9,16.7,8,18.6,13.5,23.9,29.6,28.2,10.3,2.8,30.8,3.3,39.8,1,6.3-1.5,16-6,16-7.3s-3.4-3.2-7.5-6.1c-8.8-6.2-14.5-12.1-15.5-16-1.7-7,0-10.6,14.1-29.4S152.9,0,157.7,0c1.1,0,20.5,8.9,43.1,19.7l41.1,19.8,3-2.3c6-4.4,16.9-4,22.7.9,3.8,3.2,7.3,10,7.3,14.3,0,2.5.9,3.4,6.3,6.1s6.5,3.1,9.6,1.6c10.2-5.1,23.7,1.1,26.7,12.3,1,3.8,1.9,4.7,7.6,7.5l6.4,3.3L336,81a19.1,19.1,0,0,1,17.4,0c5.6,2.7,8.5,6.7,10.2,13.7l1.2,5.2,23,11.2c23,11.3,30.2,14,58.3,22s39.9,13.1,48.5,21.1c6.1,5.8,7.9,8.9,9.3,16.2,4.4,23.3-18.5,48.1-56.3,60.7-20.8,7-26.2,7.7-62.4,8.1-18.2.1-56.1-.4-84.2-1.2ZM161.7,193.9c.8-.3,23.4-20.7,50.4-45.1,32.2-29.3,49-45.2,49-46.5s-1.2-2.4-4.6-3.3l-10.6-2.9c-4.5-1.2-7.2-1.4-10.1-.7s-16.7,12.4-57.4,48.4c-29.4,26.1-53.8,48-54.1,48.8a2.7,2.7,0,0,0-.1,2.3c.6,1,35.5.1,37.5-1Zm75,.6c2.7-1.4,76.4-68.4,79.7-72.4s.7-3.6-10.5-6.6c-14.1-3.7-14.8-3.6-22.9,3.5-26.8,23.6-80.5,72.5-81,73.6a3.3,3.3,0,0,0,0,2.4c1,1.7,31.5,1.2,34.7-.5Z"/>
</svg>
