<?xml version="1.0" encoding="UTF-8" standalone="no"?>
<!-- Created with Inkscape (http://www.inkscape.org/) -->

<svg
   xmlns:dc="http://purl.org/dc/elements/1.1/"
   xmlns:cc="http://creativecommons.org/ns#"
   xmlns:rdf="http://www.w3.org/1999/02/22-rdf-syntax-ns#"
   xmlns:svg="http://www.w3.org/2000/svg"
   xmlns="http://www.w3.org/2000/svg"
   xmlns:sodipodi="http://sodipodi.sourceforge.net/DTD/sodipodi-0.dtd"
   xmlns:inkscape="http://www.inkscape.org/namespaces/inkscape"
   width="210mm"
   height="297mm"
   viewBox="0 0 210 297"
   version="1.1"
   id="svg8"
   inkscape:version="0.92.1 r15371"
   sodipodi:docname="shoes.svg">
  <defs
     id="defs2" />
  <sodipodi:namedview
     id="base"
     pagecolor="#ffffff"
     bordercolor="#666666"
     borderopacity="1.0"
     inkscape:pageopacity="0.0"
     inkscape:pageshadow="2"
     inkscape:zoom="0.35"
     inkscape:cx="400"
     inkscape:cy="560"
     inkscape:document-units="mm"
     inkscape:current-layer="layer1"
     showgrid="false"
     inkscape:window-width="1280"
     inkscape:window-height="744"
     inkscape:window-x="-4"
     inkscape:window-y="-4"
     inkscape:window-maximized="1" />
  <metadata
     id="metadata5">
    <rdf:RDF>
      <cc:Work
         rdf:about="">
        <dc:format>image/svg+xml</dc:format>
        <dc:type
           rdf:resource="http://purl.org/dc/dcmitype/StillImage" />
        <dc:title></dc:title>
      </cc:Work>
    </rdf:RDF>
  </metadata>
  <g
     inkscape:label="Layer 1"
     inkscape:groupmode="layer"
     id="layer1">
    <path
       style="fill:#000000;stroke-width:0.37576067"
       d="m 119.15732,146.92592 c -29.303965,-0.83217 -66.311253,-2.0391 -74.58849,-2.43258 -4.236702,-0.2014 -10.915848,-0.35681 -14.842547,-0.34535 -9.295526,0.0271 -11.722868,-0.5089 -13.872298,-3.06335 -1.681135,-1.99792 -2.145135,-3.63744 -2.490054,-8.79851 -1.112948,-16.65316 0.158643,-32.03147 3.420924,-41.371836 2.916842,-8.35133 9.091878,-16.30743 12.656823,-16.30743 1.823899,0 2.988175,1.39169 4.913452,5.87318 2.8259,6.57789 4.768997,8.43214 10.433959,9.9569 3.64936,0.98224 10.876653,1.17252 14.058647,0.37012 2.212235,-0.55785 5.639236,-2.1309 5.632055,-2.5852 -0.0023,-0.15152 -1.200999,-1.12096 -2.663564,-2.1543 -3.086844,-2.18093 -5.101662,-4.27039 -5.447832,-5.64963 -0.617081,-2.45865 -0.0076,-3.73358 4.955529,-10.36528 4.571587,-6.10859 5.584638,-7.09437 7.290651,-7.09437 0.384817,0 7.219453,3.13519 15.188089,6.96708 l 14.488427,6.96708 1.075359,-0.79505 c 2.12937,-1.57431 5.94325,-1.43422 7.99682,0.29374 1.3463,1.13284 2.56733,3.53165 2.57967,5.06795 0.007,0.87471 0.33924,1.19502 2.22873,2.14883 2.11236,1.06632 2.27663,1.09289 3.37366,0.54561 3.62643,-1.8091 8.3648,0.37728 9.43555,4.35376 0.35874,1.33227 0.67382,1.64504 2.67456,2.65501 l 2.26792,1.14484 1.59325,-0.77128 c 2.03206,-0.9837 4.07034,-0.97954 6.11961,0.0125 1.97231,0.95477 3.01521,2.34697 3.59893,4.80429 l 0.44202,1.86081 8.09175,3.950396 c 8.11591,3.96219 10.64594,4.91521 20.59105,7.75632 10.03586,2.86702 14.0559,4.61998 17.07826,7.44705 2.17316,2.03273 2.81355,3.13981 3.30001,5.70491 1.56124,8.23237 -6.52484,16.96056 -19.84813,21.42428 -7.35887,2.46545 -9.27069,2.71099 -22.04769,2.83168 -6.40672,0.0605 -19.76501,-0.12046 -29.6851,-0.40217 z m -49.131884,-15.5475 c 0.257686,-0.13647 8.247297,-7.30735 17.754693,-15.93529 11.382592,-10.32968 17.286171,-15.934286 17.286171,-16.410766 0,-0.53454 -0.41728,-0.83398 -1.59698,-1.14603 -0.87835,-0.23233 -2.57329,-0.69042 -3.766541,-1.01797 -1.577011,-0.4329 -2.541972,-0.50108 -3.533128,-0.24965 -1.03448,0.26243 -5.921977,4.381526 -20.251085,17.067256 -10.388129,9.19675 -18.986586,16.94798 -19.107671,17.22496 -0.121089,0.27699 -0.13583,0.64007 -0.03277,0.80684 0.216118,0.34969 12.542463,0.0339 13.247296,-0.33935 z m 26.461057,0.19237 c 0.935674,-0.48818 26.925587,-24.12044 28.084647,-25.53698 0.7683,-0.93897 0.25698,-1.26026 -3.6844,-2.31504 -4.97349,-1.33099 -5.21946,-1.29353 -8.08027,1.23077 -9.44233,8.33164 -28.385999,25.54809 -28.565943,25.96139 -0.120597,0.27699 -0.124189,0.65745 -0.008,0.84547 0.358551,0.58014 11.098043,0.41747 12.253955,-0.18561 z"
       id="path86"
       inkscape:connector-curvature="0" />
  </g>
</svg>
