<?xml version="1.0" encoding="UTF-8" standalone="no"?>
<svg
   xmlns:dc="http://purl.org/dc/elements/1.1/"
   xmlns:cc="http://creativecommons.org/ns#"
   xmlns:rdf="http://www.w3.org/1999/02/22-rdf-syntax-ns#"
   xmlns:svg="http://www.w3.org/2000/svg"
   xmlns="http://www.w3.org/2000/svg"
   id="svg8"
   version="1.1"
   viewBox="0 0 137.86753 137.95459"
   height="137.95459mm"
   width="137.86752mm">
  <defs
     id="defs2" />
  <metadata
     id="metadata5">
    <rdf:RDF>
      <cc:Work
         rdf:about="">
        <dc:format>image/svg+xml</dc:format>
        <dc:type
           rdf:resource="http://purl.org/dc/dcmitype/StillImage" />
        <dc:title></dc:title>
      </cc:Work>
    </rdf:RDF>
  </metadata>
  <g
     transform="translate(7.8110891,-48.812692)"
     id="layer1">
    <g
       transform="translate(-31.564433,23.060399)"
       id="layer1-7">
      <path
         style="fill:#000000;stroke-width:0.28756624"
         d="m 87.571759,163.62893 c -9.907313,-0.98706 -17.2485,-3.04262 -25.593397,-7.16625 -18.176498,-8.98191 -31.475118,-25.55879 -36.341734,-45.30038 -1.495365,-6.06599 -1.884545,-9.48055 -1.883281,-16.523357 8.42e-4,-4.6891 0.137802,-7.21957 0.529187,-9.77726 2.262237,-14.78363 8.600742,-27.62671 18.857962,-38.21 11.414643,-11.77751 25.639113,-18.76557 42.182707,-20.7231 l 1.489809,-0.17629 -0.160381,6.83697 c -0.241533,10.2965 0.483174,17.79443 2.495264,25.81633 5.307556,21.16041 18.319735,34.31323 39.258275,39.68257 8.0751,2.070727 12.9301,2.589667 24.22785,2.589667 h 8.98684 l -0.16942,1.43783 c -2.80294,23.78877 -17.07008,44.13177 -38.22147,54.4986 -6.72498,3.29608 -13.3462,5.3779 -20.56098,6.46469 -2.8846,0.43453 -12.675941,0.79121 -15.097231,0.54998 z M 144.29194,89.013813 c -14.60661,-1.04776 -26.52445,-5.84795 -33.76287,-13.59879 -6.33179,-6.78001 -10.17599,-15.97697 -11.737351,-28.08073 -0.536299,-4.15742 -0.945975,-16.10371 -0.552245,-16.10371 0.311308,0 57.916836,57.56217 57.916836,57.87324 0,0.26728 -7.69764,0.20888 -11.86437,-0.09 z"
         id="path99" />
    </g>
  </g>
</svg>
