<svg xmlns="http://www.w3.org/2000/svg" viewBox="0 0 390.8 391.1">
  <title>sticker</title>
  <path d="M180.9,390.8c-28.1-2.8-48.9-8.6-72.5-20.3A195,195,0,0,1,5.3,242.1C1.1,224.9,0,215.2,0,195.3c0-13.3.4-20.5,1.5-27.7C7.9,125.6,25.9,89.2,55,59.2,87.3,25.9,127.6,6,174.5.5l4.3-.5-.5,19.4c-.7,29.2,1.4,50.4,7.1,73.2,15,59.9,51.9,97.2,111.3,112.4,22.8,5.9,36.6,7.4,68.6,7.4h25.5l-.5,4.1c-7.9,67.4-48.4,125.1-108.3,154.4a195.9,195.9,0,0,1-58.3,18.4c-8.2,1.2-35.9,2.2-42.8,1.5ZM341.7,179.3c-41.4-2.9-75.2-16.6-95.7-38.5-18-19.2-28.9-45.3-33.3-79.6-1.5-11.8-2.7-45.7-1.6-45.7S375.3,178.7,375.3,179.6s-21.8.6-33.6-.3Z"/>
</svg>
