<svg xmlns="http://www.w3.org/2000/svg" viewBox="0 0 457.7 398.1">
  <title>t-shirt</title>
  <path d="M99.5,396.8c-6.6-2.9-6.1,7.9-6.1-132.9,0-120.7-.1-127.1-1.6-126.7l-21.4,6.3c-10.8,3.2-21.2,5.8-23.1,5.8a7.5,7.5,0,0,1-5.9-2.7C38.1,143.3,0,67.6,0,64.4c-.1-6.4.8-6.9,47.7-28.5C72.1,24.7,94.9,14.5,98.4,13.3c10.3-3.5,25.9-7.7,40.2-10.9,18.8-4.2,20.2-3.6,24.8,11,10.4,32.9,44.3,53.2,78,46.8,23.9-4.6,44-21.7,51.8-44.2,4.3-12.3,5-13.6,8.7-15.1S306.2-.4,317.4,2s33.6,8.4,43.5,11.8c3.1,1.1,25.4,11.1,49.5,22.3,46.4,21.4,47.3,21.9,47.3,28.3-.1,3.2-38.2,78.9-41.5,82.2a7.1,7.1,0,0,1-6,2.7c-2,0-12.9-2.8-24.3-6.2l-21.2-6.2c-.3,0-.5,56.9-.5,126.5,0,99.3-.3,127.1-1.2,129s-2.7,3.1-4.5,4.1-11.3,1.6-129.7,1.6c-104.3,0-126.8-.3-129.3-1.3Z"/>
</svg>
