<svg xmlns="http://www.w3.org/2000/svg" viewBox="0 0 261.7 213.2">
  <title>twitter</title>
  <path d="M74.2,213.1c-26.9-2-48.6-8.5-69.4-20.9L0,189.4l8.4.3a107.8,107.8,0,0,0,53.8-12A134.7,134.7,0,0,0,78,167.8l1.2-.9-4-.4c-15.4-1.3-30.2-10.1-39.1-23-2.7-4-6-10.3-6.6-12.8s-.3-1.3,1.9-.9c3.7.7,12.2.5,17.1-.4l4.6-.8L48,126.9A53.5,53.5,0,0,1,11.8,88.8c-1-4-2-13.5-1.3-13.5L13,76.4c4.8,2.5,14.8,5.1,19.3,5.1h1.9l-1.6-1.1c-3.2-2.3-11-10.6-13.3-14.2-8.9-14-11.1-31.7-5.6-46.9,1-3,3.5-8.5,4.1-9.1s1.1.8,2.1,2A173.8,173.8,0,0,0,37.1,29.3a151.8,151.8,0,0,0,85.3,36.3c3.3.3,6.2.5,6.3.3a13.2,13.2,0,0,0-.4-3.7c-.9-5.1-.3-16.9,1-21.8A53.1,53.1,0,0,1,144,15.5,50.2,50.2,0,0,1,161,4c19.6-7.9,41.5-4,56.6,10l3.1,2.9,3.8-.8a117.1,117.1,0,0,0,23.2-8.5c7.9-3.9,7.8-3.9,4.9,2.4a58,58,0,0,1-17.1,20.8,32.4,32.4,0,0,0-3.4,2.7c0,.2,8.2-1.3,12.3-2.3A145.4,145.4,0,0,0,261,25.8c1.2-.5,1.1-.3-2.6,4.6a128.1,128.1,0,0,1-18.2,18.8l-4.9,4,.2,3.7c.3,4.6-.6,17.7-1.7,25.1a165.5,165.5,0,0,1-19.2,55.3c-24.5,42.5-64.1,68.9-112.4,74.8-6.3.8-23,1.4-28,1Z"/>
</svg>
