<svg xmlns="http://www.w3.org/2000/svg" viewBox="0 0 253.4 214.6">
  <title>vgo</title>
  <path d="M113,188.2,99.5,161.9l-49.7-.3L0,161.4l24.9-49.1L49.7,63.2,34.3,31.6,18.8,0H62.1L72.8,21.3,83.4,42.6h86.9L181,21.3,191.6,0h43.5L224.4,21.3,213.8,42.5l19.8.3,19.8.2-31.2,59-31.3,59-18.4.4-18.3.5-13.5,26.3c-7.3,14.5-13.6,26.4-13.8,26.4s-6.5-11.9-13.9-26.4ZM93.9,136.7c7.5-4,11.2-8.4,20.5-24.9,4.9-8.7,8.9-16.1,8.9-16.4s-9.7-.5-21.6-.5H80l-3.6,6.6a63,63,0,0,0-3.6,7.1c0,.3,6.3.5,14.1.5s14.2.2,14.2.5c0,2-6.8,11.3-9.5,13s-4.4,2-19.3,2.3c-18.2.2-20.5-.3-20.2-4.8S69.2,86.3,72.7,83.2s8.4-4.4,25.1-4.1c13.6.3,15.1.4,16.3,2a4.8,4.8,0,0,1,.7,3.7c-.5,2.1-.5,2.1,6.7,2.1h7.2l3.1-6.4c3.7-7.8,3.8-9.8.4-13.2l-2.6-2.7-26.4.3c-26,.3-26.5.3-30.9,2.5-7.9,3.9-11.3,8.4-26,35-7.9,14.4-13.9,26.2-14.1,28.1-.5,3.7.9,6.7,3.6,7.9,1.1.4,13.7.7,28.1.6,25.5-.2,26.3-.2,30-2.3Zm78.1-.4c7.8-4.1,11.2-8.6,26.2-35.2S214.7,71,209.9,66.8l-2.5-2.1-26.3.2c-25.9.3-26.4.3-30.7,2.5-8.1,3.9-11.5,8.4-26.5,35.4s-16.5,30.3-11.8,34.4l2.6,2.1,26.2-.2,26.3-.3Zm-40.4-12.1a4,4,0,0,1-2.4-5c.4-.8,4.5-8.5,9.4-17.1,9.2-16.6,12.6-20.7,18.1-22.2s30.5-1.3,33.5-.1,3,4.7-7,22.5-12.4,20.3-18,21.8C161.3,125.2,134.3,125.3,131.6,124.2Z"/>
</svg>
