<?xml version="1.0" encoding="UTF-8" standalone="no"?>
<svg
   xmlns:dc="http://purl.org/dc/elements/1.1/"
   xmlns:cc="http://creativecommons.org/ns#"
   xmlns:rdf="http://www.w3.org/1999/02/22-rdf-syntax-ns#"
   xmlns:svg="http://www.w3.org/2000/svg"
   xmlns="http://www.w3.org/2000/svg"
   id="svg8"
   version="1.1"
   viewBox="0 0 89.407551 75.70488"
   height="75.70488mm"
   width="89.407547mm">
  <defs
     id="defs2" />
  <metadata
     id="metadata5">
    <rdf:RDF>
      <cc:Work
         rdf:about="">
        <dc:format>image/svg+xml</dc:format>
        <dc:type
           rdf:resource="http://purl.org/dc/dcmitype/StillImage" />
        <dc:title></dc:title>
      </cc:Work>
    </rdf:RDF>
  </metadata>
  <g
     transform="translate(-27.61609,-86.926746)"
     id="layer1">
    <g
       transform="translate(-13.022843,36.749137)"
       id="layer1-1">
      <path
         style="fill:#000000;stroke-width:0.31289259"
         d="M 80.496703,116.58131 75.757244,107.2805 58.198087,107.1997 40.638933,107.1189 49.413518,89.790281 58.188102,72.461717 52.727426,61.319664 47.266752,50.177609 h 7.641097 7.641097 l 3.757214,7.509422 3.757215,7.509423 h 15.329234 15.329231 l 3.75722,-7.509423 3.75721,-7.509422 h 7.66587 7.66587 l -3.75428,7.503552 -3.75428,7.503553 6.99352,0.08409 6.99351,0.08409 -11.03134,20.807358 -11.03134,20.807348 -6.47419,0.15645 -6.474199,0.15644 -4.743176,9.30119 c -2.608748,5.11565 -4.813581,9.30101 -4.899626,9.30081 -0.08604,-2.1e-4 -2.289204,-4.18574 -4.895906,-9.30119 z M 73.768464,98.419064 c 2.657322,-1.418063 3.929922,-2.970508 7.223905,-8.812422 1.73177,-3.07131 3.14867,-5.666398 3.14867,-5.766861 0,-0.100467 -3.436916,-0.182664 -7.637587,-0.182664 h -7.637589 l -1.27985,2.331957 c -0.703921,1.282575 -1.279853,2.408989 -1.279853,2.503141 0,0.09415 2.252827,0.171184 5.006282,0.171184 2.753455,0 5.006282,0.08718 5.006282,0.19374 0,0.705469 -2.407509,3.957828 -3.375048,4.55943 -1.084792,0.674509 -1.535639,0.72821 -6.793962,0.809256 -6.41055,0.0988 -7.233188,-0.09334 -7.144943,-1.668904 0.06704,-1.196901 6.063987,-11.92786 7.281912,-13.030271 1.44301,-1.306148 2.951728,-1.55262 8.836653,-1.443605 4.806769,0.08904 5.356421,0.155617 5.751439,0.696605 0.246487,0.337571 0.35676,0.916885 0.253127,1.329794 -0.181231,0.722084 -0.150333,0.73164 2.365649,0.73164 h 2.54928 l 1.082906,-2.259645 c 1.323739,-2.762182 1.346658,-3.469701 0.151111,-4.665244 L 86.345057,72.9844 77.029616,73.07981 c -9.168498,0.0939 -9.340117,0.107544 -10.879902,0.864753 -2.78935,1.371706 -3.98296,2.983128 -9.164271,12.372143 -2.792028,5.059417 -4.899782,9.237682 -4.988687,9.889234 -0.180198,1.320585 0.305264,2.389795 1.266592,2.789615 0.375956,0.156362 4.837204,0.254019 9.913886,0.21702 8.99182,-0.06553 9.265498,-0.08604 10.59123,-0.793509 z M 101.305,98.262806 c 2.77192,-1.459741 3.95191,-3.043985 9.23764,-12.402315 5.5617,-9.846937 5.83671,-10.649666 4.14657,-12.103462 l -0.88855,-0.764306 -9.27597,0.09125 c -9.128673,0.0898 -9.300805,0.103455 -10.840427,0.860095 -2.832532,1.39204 -4.02935,2.99136 -9.349707,12.494118 -5.55277,9.917875 -5.81596,10.688717 -4.14128,12.129215 l 0.893102,0.768214 9.271424,-0.09516 9.27142,-0.09515 z M 87.078819,93.988921 c -0.771875,-0.311882 -1.122212,-1.045727 -0.844601,-1.769166 0.107901,-0.281188 1.586225,-2.99162 3.285163,-6.023183 3.272281,-5.839017 4.462405,-7.294941 6.40381,-7.83402 1.507279,-0.418532 10.738679,-0.443801 11.820869,-0.03235 1.40931,0.535819 1.05621,1.658672 -2.49038,7.919271 -3.40356,6.008142 -4.35675,7.169036 -6.338181,7.719332 -1.38797,0.385478 -10.892486,0.401632 -11.83668,0.02012 z"
         id="path34" />
    </g>
  </g>
</svg>
