<svg xmlns="http://www.w3.org/2000/svg" viewBox="0 0 1112.6 632.5">
  <title>vk</title>
  <path d="M885.4,630.6c-19.2-4.5-45.7-19.2-62.9-34.9-8.6-7.9-30.4-30.9-48.4-51-57.3-64.2-75.3-72.3-99.6-44.7-14.7,16.7-20.8,37.8-24.1,83.4-1.9,26.3-3.9,31.2-16.4,40.5-5.5,4.1-10.1,4.6-55.3,5.8-75.3,2.1-109.5-2.7-158.1-22.2-43.2-17.3-103.6-57.3-140.9-93.1-48.4-46.6-121.4-148-174.1-241.6C61.8,194.9,2.7,72.4.2,54.7c-1.3-9.8,3-17.3,13.1-22.8,6.4-3.5,15.8-3.9,96.1-4.6s90-.2,98.5,3c15.4,5.9,21.1,12.3,31.2,35.3,27.8,63.6,73.2,151.3,96.6,186.5,30.4,45.7,60.9,66.9,78.6,54.5,16-11.2,25.9-68.5,24-139.3C436.1,82,425.2,57.8,384,46.5c-8.3-2.3-13.7-5-14.1-7.1s3.6-7.5,8.7-12.5C400.8,5.1,426.9,0,516.3,0c99.8,0,121.1,5.9,131.8,36.7,2.5,7,3.1,31.3,3.1,124,0,113,.1,115.5,4.6,125.3,6.5,14,15.2,21.6,24.8,21.6,6.2,0,10.7-2.4,21.8-11.6,16.5-13.6,26.7-25.5,46.1-53.7,35.3-51.4,62.1-100,87.4-158.8,17.6-40.8,21.5-47.5,29.7-51.4,3.7-1.8,38-2.8,115.1-3.3l109.9-.8,9.1,4.9c18.3,9.8,17.2,31.5-3.5,72.7-16,31.6-41.7,69.5-98.9,145.4-28.4,37.7-54.7,74.8-58.5,82.4-8.1,16.5-8.5,30.1-1.3,44.4,2.9,5.7,25.9,30.3,61.6,65.7,58.8,58.4,74.4,75.9,95.5,107.8,13.7,20.6,19.6,40.1,16.4,54.2-2,8.8-12.4,18.5-23.7,21.9-14.7,4.5-184.8,7.1-201.9,3.2Z"/>
</svg>
