<?xml version="1.0" encoding="UTF-8" standalone="no"?>
<svg
   xmlns:dc="http://purl.org/dc/elements/1.1/"
   xmlns:cc="http://creativecommons.org/ns#"
   xmlns:rdf="http://www.w3.org/1999/02/22-rdf-syntax-ns#"
   xmlns:svg="http://www.w3.org/2000/svg"
   xmlns="http://www.w3.org/2000/svg"
   id="svg8"
   version="1.1"
   viewBox="0 0 343.9585 301.89716"
   height="301.89716mm"
   width="343.9585mm">
  <defs
     id="defs2" />
  <metadata
     id="metadata5">
    <rdf:RDF>
      <cc:Work
         rdf:about="">
        <dc:format>image/svg+xml</dc:format>
        <dc:type
           rdf:resource="http://purl.org/dc/dcmitype/StillImage" />
        <dc:title></dc:title>
      </cc:Work>
    </rdf:RDF>
  </metadata>
  <g
     transform="translate(100.99826,-3.0923594)"
     id="layer1">
    <path
       id="path4496"
       d="m 52.699461,304.70023 c -10.669522,-0.92186 -20.311642,-5.04901 -29.972036,-12.82903 -8.07207,-6.50086 -110.26907,-109.54778 -113.79809,-114.74449 -6.16373,-9.07649 -9.107335,-17.69848 -9.812665,-28.74182 -0.77571,-12.14529 2.386995,-23.91303 9.128915,-33.96672 2.44967,-3.653 18.12761,-19.908263 54.2497,-56.247365 57.73173,-58.07856184 54.12937,-55.0514696 65.51339,-55.0514696 10.007605,0 11.621997,1.0438735 30.405844,19.6604766 L 74.305061,38.528871 88.646978,24.317086 C 101.58921,11.492295 103.40906,9.9492419 107.29399,8.5062339 113.48432,6.2069165 120.59892,6.324 126.15316,8.8165949 c 3.46448,1.5547671 6.5294,4.2220371 17.69492,15.3991741 l 13.50465,13.518693 2.59492,-1.135434 c 1.6348,-0.715322 4.71878,-1.144085 8.33504,-1.158817 9.27828,-0.0378 11.08051,1.131715 27.976,18.154386 9.28627,9.356171 14.9547,15.648847 16.07759,17.848141 2.3428,4.588645 2.87175,12.331858 1.19302,17.464287 l -1.21791,3.72354 13.28106,13.348085 c 15.81318,15.89298 17.31021,18.28947 17.31114,27.71229 0.001,11.12074 4.93937,5.52545 -77.64044,87.97023 -57.65382,57.55955 -73.951238,73.44285 -77.377835,75.41168 -11.343927,6.51794 -21.79798,8.78411 -35.185854,7.62738 z"
       style="fill:#000000;stroke-width:0.71751416" />
  </g>
</svg>
