<svg xmlns="http://www.w3.org/2000/svg" viewBox="0 0 546.1 382.9">
  <title>youtube-simple-01</title>
  <path d="M183.8,382.6c-75.5-2.1-112.9-5-128-10.1S26.9,357.3,19.7,345C5.9,321.5,0,275.5,0,191.7,0,125.1,3.9,81.1,11.8,57.3c5.5-16.7,9.3-23,19.1-32.2A66.1,66.1,0,0,1,62.8,7.9C109.1-2.7,437.4-2.6,483.7,8a67.1,67.1,0,0,1,48.1,41.5c10,25.6,12.9,52,14.1,124.2,1.5,91.9-4.5,146.5-18.7,170.5-4.4,7.3-13.9,16.9-21.7,21.9-14.6,9.4-27.1,11.6-83.4,14.6C393.9,382.1,219,383.6,183.8,382.6Zm55.3-131.8,54.4-28.3c60.7-31.3,67.5-34.9,67.9-36.2s-17.7-10.7-39.8-22.3l-60-31.2-31.3-16.4c-6.5-3.3-12.2-6.1-12.8-6.1s-1,34-1,75.6.5,75.5,1.1,75.5S227.9,256.7,239.1,250.8Z"/>
</svg>
